<svg xmlns="http://www.w3.org/2000/svg" width="613" height="468" viewBox="0 0 613 468">
    <g fill="#1D222C" fill-rule="nonzero" stroke="#1C222D" stroke-width="2.167" opacity=".04">
        <path d="M334.246 282.452l.347-.118.076.662 1.516-.378 1.607.063 1.17.07 1.33-1.631 1.454-1.561 1.225-1.498.367.827.264 1.924-.99.008-.16 1.577.346.331-.88.473-.006.986-.568.993-.048.954-.395.505-5.83-1.199-.748-2.428zM353.556 255.69l2.066.951 1.524-.337.426-1.134 1.596-.381 1.14-.769.405-2.042 1.705-.498.317-.915.96.688.608.08 1.126.022 1.531.542.614.308 1.466-.82.686.49.65-1.171 1.214.051.31-.38.217-1.048.874-.9 1.09.586-.217.798.614.124-.195 2.16.802.842.708-.542.902-.249 1.257-1.15 1.394.191h2.094l.361.74-1.184.285-1.026.476-2.325.293-2.174.534-1.184 1.106.476 1.069.239 1.244-1.011 1.047.086.952-.556.893-1.928-.08.794 1.625-1.285.622-.86 1.464.109 1.45-.795.673-.743-.22-1.553.316-.217.666h-1.51l-1.126 1.347-.072 2.013-2.636.974-1.408-.205-.412.512-1.206-.292-2.03.351-3.386-1.2 1.834-2.146-.166-1.537-1.531-.403-.16-1.53-.664-1.933.867-1.34-.881-.358.556-1.794zM272.458 239.886l-.284.958.325 1.2.94.679-.049.731-.737.408-.138.898-1.054 1.327-.389-.188-.04-.604-1.264-.928-.195-1.32.195-1.909.308-.875-.381-.445-.154-.898.988-1.41.138.542.616-.256.486.77.543.286zM318.655 242.584l2.595-.396.386.67.712.436-.38.628 1 .86-.527.792.792.676.839.402.04 1.707-.679.068-.759-1.42.007-.375-.825.007-.553-.67-.386.069-.738-.724-1.385-.62.18-1.223zM264.906 344.862l.494 1.484.572 1.193.458.647.765 1.044 1.323-.164.665-.284 1.109.284.3-.497.5-1.165 1.245-.078.108-.348 1.022-.007-.171.718 2.431-.015.036 1.257.408.775-.293 1.207.15 1.236.672.746-.107 2.393.493-.185.873.05 1.244-.298.916.12.214.626-.229.98.35.951-.3.76.172.703-4.177-.028-.093 6.506 1.352 1.69 1.309 1.293-3.683.845-4.857-.291-1.387-.995-8.132.093-.3.149-1.195-.938-1.302-.064-1.201.355-.966.398-.186-1.3.28-1.81.693-1.883.107-.88.651-1.84.48-.83 1.15-1.329.644-.902.208-1.499-.108-1.143-.6-.717-.537-1.222-.493-1.2.107-.42.615-.795-.608-1.932-.407-1.335-1.002-1.257.193-.383.83-.27.58.035.7-.241 5.915.007zm-7.803-.384l-.508.213-.536-1.491.808-.86.608-.333.751.682-.73.419-.329.51-.064.86zM100.663 464.262l-1.907.178-1.026-1.235-1.212-.093h-2.151v-7.547l.774 1.535 1.004 2.52 2.618 2.05 2.818.864-.918 1.728zm1.076-87.429l1.183 1.557.782-1.735 2.295.086.323.457 3.693 3.527 1.642.328 2.46 1.614 2.073.857.287.971-1.98 3.378 2.03.607 2.259.342 1.592-.357 1.822-1.713.33-1.957.996-.421 1.011 1.278-.043 1.778-1.692 1.235-1.348.914-2.267 2.2-2.682 3.12-.502 1.85-.538 2.406.022 2.356-.437.528-.158 1.55-.137 1.257 2.554 2.078-.273 1.692 1.255 1.078-.1 1.214-1.93 3.227-2.983 1.364-4.03.536-2.21-.257.424 1.535-.409 1.942.373 1.321-1.205.928-2.058.365-1.936-.964-.775.692.28 2.65 1.355.813 1.105-.85.602 1.4-1.85.843-1.614 1.7-.294 2.791-.473 1.507-1.9.007-1.578 1.457-.574 2.149 1.98 2.128 1.921.592-.688 2.664-2.374 1.7-1.305 3.591-1.836 1.228-.825 1.471.653 3.313 1.341 1.878-.846-.164-1.865-.507-4.862-.436-.832-1.877.036-2.378-1.341.2-.71-1.143-.18-3.284 1.542-1.343.639-1.913-.237-1.507 1.069-2.514.731-3.82-.215-1.664.875-.535-.215-1.057-.933-.557.66-1.164-.91-1.042-.467-3.142.81-.55-.336-3.242.473-2.677.538-2.3 1.205-.928-.61-2.47-.007-2.3 1.52-1.613-.043-2.05 1.148-2.363.007-2.207-.524-.435-.925-4.063 1.24-2.385-.193-2.22.717-2.072 1.32-2.113 1.42-1.393-.603-.878.424-.714-.065-3.67 2.187-1.078.689-2.257-.244-.542 1.678-1.943 2.596.514zM266.422 223.415l-.155 1.354-1.172.008.4.704-.689 2.097-.393.546-1.816.08-1.053.727-1.72-.245-2.973-.831-.46-1.132-2.054.57-.244.61-1.26-.46-1.06-.087-.942-.585.318-.8-.081-.585.63-.174 1.053.902.296-.863 1.832.143 1.49-.586.993.095.645.673.2-.554-.296-2.153.749-.427.726-1.543 1.55 1.084 1.164-1.377.734-.253 1.616 1.029.971-.174.964.633-.17.427zM522.798 420.966l1.948.908 1.1-.362 1.573-.503 1.208.177.143 3.141-.69.922-.208 2.17-.704-.744-1.402 1.893-.417-.149-1.236-.085-1.243-2.326-.273-1.773-1.164-2.304.05-1.206 1.315.241zm-3.701-61.028l.726 1.595 1.293-.766.669.865.97.802-.208.907.43 1.76.31 1.027.51.249.546 1.772-.194 1.078.654 1.411 2.185 1.093 1.423 1 1.351.914-.266.51 1.15 1.327.784 2.305.805-.468.819.929.496-.327.345 2.277 1.43 1.326.934.83 1.574 1.765.568 1.766.05 1.255-.136 1.376.963 1.9-.115 1.993-.352 1.05-.546 2.035.043 1.319-.396 1.66-.89 2.127-1.496 1.155-.733 1.837-.675 1.184-.597 2.078-.776 1.213-.51 1.83-.26 1.701.102.788-1.158.865-2.256.092-1.862 1.028-.927.979-1.214 1.092-1.668-1.12-1.236-.447.316-1.312-1.1.475-1.767 1.83-1.74-.688-1.142-.398-1.15-.177-1.948-.73-1.3-1.546-.375-1.887-.467-1.24-.992-.993-1.94-.291.661-1.177-.489-1.787-.984 1.666-1.797.447 1.056-1.333.302-1.383.777-1.17-.159-1.752-1.638 2.021-1.258.816-.769 1.907-1.574-.992.065-1.27-1.258-1.723-1.064-.886.381-.546-2.587-1.419-1.416-.063-1.94-1.135-3.608.22-2.61.837-2.292.78-1.926-.156-2.135 1.205-1.746.546-.388 1.241-.748.965-1.71.056-1.265.213-1.782-.433-1.452.263-1.38.106-1.2 1.277-.59-.107-1.013.681-.97.766-1.474-.092h-1.35l-2.135-1.54-1.086-.453.043-1.369 1-.326.344-.539-.071-.85.244-1.632-.223-1.383-1.064-2.333-.33-1.312.086-1.297-.805-1.475-.05-.66-.891-.893-.252-1.752-1.15-1.759-.28-.943.884.958-.683-2.043 1 .639.596.85-.036-1.127-1-1.723-.193-.688-.468-.652.216-1.256.41-.532.273-1.077-.216-1.256.834-1.538.15 1.624.849-1.468 1.639-.71.984-.907 1.538-.78.913-.163.553.262 1.589-.787 1.222-.234.301-.461.532-.192 1.114.05 2.12-.617 1.093-.929.517-1.12 1.179-1.057.093-.83.05-1.127 1.41-1.752.847 1.78.856-.411-.719-.979.632-1 .892.447.244-1.567 1.1-1.007.488-.808 1.014-.348.028-.567.885.24.035-.51.884-.29.978-.277 1.488.936 1.12 1.213 1.259.014 1.279.191-.424-1.12.963-1.631.905-.532-.316-.503.877-1.156 1.222-.717 1.028.242 1.696-.383-.036-1.029-1.474-.666 1.071-.291 1.337.496 1.07.83 1.697.518.575-.206 1.25.624 1.18-.581.754.177.474-.39.927 1-.539 1.085-.761.822-.69.071.237.816-.59 1.014-.718 1 .143.574 1.603 1.135 1.553.66 1.034.708 1.46 1.22h.567l1.057.532.309.638 1.926.702 1.33-.709.395-1.113.41-.915.251-1.128.61-1.63-.28-.986.144-.596-.23-1.163.266-1.532.388-.411-.316-.674.489-1.07.38-1.107.051-.574.748-.752.567.986.137 1.262.503.241.086.851.733 1.029.151 1.148-.057.717z"/>
        <path d="M321.368 247.002l.536.693.801-.007-.006.4.736 1.485-1.24-.342-.917-1.186-.285-.979.375-.064zm4.296-3.88l.8.18.31-.68 1.08-1.078.949 1.407.923 1.872.847.121.555.708-1.492.207-.316 2.014-.31.9-.666.6.052 1.265-.452.128-1.13-1.335.626-1.272-.536-.757-.678.193-2.139 1.9-.038-1.786-.814-.421-.769-.708.51-.828-.962-.9.362-.658-.691-.457-.375-.693.446-.435 1.35.764.975.157.245-.307-.89-1.443.47-.372.51.093 1.248 1.622zM269.774 233.981l.81-.008-.556 1.337 1.072 1.167-.326 1.415-.524.132-.42.28-.723.692-.326 1.633-1.969-1.12-.842-1.252-.85-.66-1.023-1.128-.477-.94-1.096-1.424.469-1.275.802.708.476-.638 1.04-.07 1.914.513 1.54-.046zM416.883 286.848l-.034 1.526-.653-.327.12 1.711-.534-1.107-.106-1.079-.36-1.03-.78-1.248-1.72-.085.172.887-.586 1.185-.8-.433-.274.39-.527-.234-.72-.191-.293-1.76-.647-1.619.313-1.306-1.147-.582.414-.795 1.167-.816-1.347-1.157.66-1.497 1.48.95.894.114.166 1.526 1.774.298 1.74-.035 1.074.376-.86 1.838-.84.128-.574 1.228 1.02 1.121.307-1.377.52-.007zM238.514 212.978l1.564.255 1.983-.678 1.35 1.422 1.183.76-.244 2.166-.557.117-.236 1.773-1.87-1.437-1.098.248-1.495-1.503-.992-1.292-.991-.05-.313-1.14zM225.82 312.315l-1.395-.471-.96.07-.712.46-.916-.388-.356-.6-.916-.4-.138-1.059.56-.78-.051-.62 1.62-1.523.299-1.265.56-.451.988.245.85-.374.276-.478 1.585-.826.385-.58 1.905-.775 1.126-.265.51.355 1.3-.006-.16.903.277.846 1.148 1.206.058.89 2.355.42-.05 1.259-.444.555-.996.167-.414.8-.698.207-1.788-.039-.945-.142-.654.297-.901-.135-3.54.084-.051 1.039zM277.083 233.61l.547 1.203.729-.218 1.457.459 2.78.15.938-.744 2.227-.677 1.376 1.06 1.114.308-.985 1.196-.689 2.052.608 1.624-1.627-.383-1.93.887-.02 1.398-1.72.263-1.33-.977-1.518.774-1.397-.082-.135-1.857-.951-.91.317-.406-.209-.338.317-.91.722-.895-.918-1.248-.168-1.067zM290.525 341.227l-.144-2.19-.571-.819 1.374.143.691-1.033 1.198.117.129.715.482.409.024.591-.555.377-.884.949-.811.656zM237.636 319.167l-1.706.225-.507-1.319.095-4.39-.419-.395-.073-.945-.721-.673-.625-.564.264-1.02.707-.217.419-.843 1.007-.176.449-.585.691-.564.743-.007 1.574 1.115-.08.646.462 1.141-.404.775.213.517-1 1.19-.633.59-.39 1.204.052 1.216zM459.76 323.454l.989-1.019 2.13-1.484-.116 1.339-.143 1.726-1.194-.087-.526.921zM106.051 378.416l-2.28-.093-.777 1.738-1.176-1.56-2.616-.521-1.66 1.945-1.447.293-.784-2.968-1.069-2.389.627-2.053-1.047-.894-.264-1.516-.984-1.43 1.262-2.246-.863-1.746.464-.693-.364-.766.784-1.03.043-1.745.093-1.445.434-.686-1.731-3.276 1.489.171 1.026-.05.45-.608 1.745-.822 1.048-.758 2.616-.344-.207 1.517.242.78-.164 1.358 2.174 1.824 2.238.336.784.766 1.354.407.827.594 1.254-.021 1.162.608.085 1.187.392.6.029.895-.585.028.77 2.41 3.827.087-.292 1.201.214.823 1.09.586.478 1.302-.357 1.66-.549.922.193 1.209-.627.436-.029-.65-1.867-1.08-1.853-.036-3.485.615-.955 1.874-.05 1.144-.791 2.568z"/>
        <path d="M115.712 394.57l2.648-3.09 2.245-2.178 1.332-.905 1.671-1.223.043-1.76-1-1.265-.983.417.39-1.259.268-1.286v-1.188l-.715-.389-.744.347-.736-.092-.234-.835-.184-1.958-.375-.636-1.339-.58-.807.417-2.097-.41.128-2.87-.588-1.174.623-.43-.19-1.196.544-.912.355-1.64-.475-1.286-1.084-.58-.212-.813.29-1.188-3.803-.085-.765-2.382.581-.028-.028-.884-.39-.594-.085-1.173-1.154-.601-1.246.02-.822-.586-1.345-.403-.78-.756-2.223-.333-2.16-1.802.163-1.344-.241-.77.205-1.499-2.599.34-1.041.749-1.735.813-.446.6-1.02.05-1.48-.17-1.12.347-.906-.233.135-3.04-1.629 1.173-1.75-.05-.75-1.067-1.317-.113.418-.855-1.105-1.216-.829-1.789.524-.36v-.842l1.204-.572-.198-1.068.503-.693.149-.919 2.266-1.35 1.629-.375.262-.297 1.791.092.893-5.408.05-.855-.312-1.124-.878-.722.007-1.428 1.119-.325.396.205.064-.756-1.161-.205-.022-1.23 3.867.042.659-.679.552.623.383 1.166.375-.247 1.098 1.046 1.543-.127.383-.608 1.473-.46.821-.318.227-.834 1.424-.566-.114-.41-1.678-.17-.276-1.244.078-1.322-.886-.509.369-.184 1.473.255 1.579.495.574-.467 1.423-.31 2.224-.736.73-.757-.27-.558 1.034-.085.467.453-.262.87.68.296.46.92-.552.692-.318 1.682.51.997.141.912 1.225.92.978.098.22-.381.622-.085.9-.347.644-.523 1.098.163.482-.071 1.083.163.177-.403-.333-.39.199-.572.8.177.942-.205 1.133.417.87.41.617-.537.44.085.275.558.95-.141.757-.75.61-1.456 1.175-1.803.68-.092.488 1.09 1.112 3.449 1.062.325.057 1.358-1.494 1.619.616.593 3.513.311.07 1.973 1.509-1.294 2.5.714 3.293 1.202.97 1.152-.326 1.09 2.31-.609 3.866 1.046 2.967-.077 2.932 1.633 2.536 2.212 1.53.566 1.7.085.721.622.673 2.524.333 1.195-.793 3.294-1.013 1.3-2.797 2.786-1.268 2.27-1.466 1.753-.496.042-.56 1.485.143 3.818-.553 3.167-.212 1.364-.624.813-.354 2.786-2.01 2.743-.34 2.184-1.608.926-.468 1.28-2.153-.007-3.123.827-1.402.954-2.224.63-2.337 1.724-1.678 2.164-.29 1.64.332 1.223-.375 2.248-.447 1.096-1.388 1.237-2.202 4.016-1.75 1.83-1.352 1.09-.9 2.233-1.317 1.35-.552-1.343.878-1.11-1.147-1.59-1.558-1.287-2.047-1.47-.736.063-1.99-1.767zM76.71 284.185l-.483.114-.498-1.335-.736-.675.428-1.48.589.092.687 1.934.014 1.35zm-.56-6.592l-2.146.38-.14-.873.926-.19 1.297.069.063.614zm1.612-.023l-.336 1.677-.365-.303.035-1.237-.883-.933-.007-.273 1.556 1.07zM413.773 275.466l.771.786-.135 1.518-1.55.07-1.596-.165-1.197.386-1.725-.936-.034-.495 1.252-1.84 1.021-.629 1.36.574 1 .063zM282.386 369.553l.392.367.623 1.206 2.218 2.291.84.226.006.74.574 1.34 1.519.324 1.252.96-2.778 1.564-1.763 1.594-.65 1.431-.589.811-1.07.176-.343 1.037-.203.677-1.252.507-1.596-.105-.937-.607-.826-.268-.959.508-.482 1.044-.93.655-.98.98-1.407.226-.434-.769.182-1.34-1.168-2.065-.525-.325v-6.247l1.931-.077.056-7.453 1.462-.063 3.023-.727.756.853 1.245-.81.602-.007 1.106-.466.35.155zM278.678 205.189l1.905.03 2.137-1.345.457-2.031 1.616-1.173-.182-1.643 1.194-.627 2.123-1.442 2.074.941.28.919 1.034-.44 1.926.88.19 1.726-.422.986 1.237 2.352.801.65-.12.643 1.329.62.57.933-.767.762-1.588-.12-.38.33.464 1.15.485 2.188-1.694.201-.604.747-.134 1.688-.78-.32-1.778.163-.52-.784-.738.583-.738-.486-1.554-.067-2.2-.807-1.989-.268-1.525.074-1.082.919-.942.127-.035-1.501-.612-1.584 1.181-.702.014-1.382-.548-1.33zM53.054 295.891l-.02-.308.338-.1.506.25.993-1.267.526-.029.01.308.527.007-.04.573-.457.91.248.322-.288.753.17.193-.318 1.053-.547.559-.506.064-.556.717h-.825l.219-2.35zM35.318 71.36l-.157-4.219 2.583.415 1.16.687 2.383 3.518-.54 3.554-2.953 1.98-1.622-2.23-.854-3.705zm9.398 9.046l.235-1.065-1.401-1.752-4.02-.136.533 2.631 3.736.594.917-.272zm25.862 33.574l2.191 3.647.577.407 2.184-.908 2.149.143 2.12.2-.178-1.888-3.444-3.847-4.567-.772-.96.479-.072 2.539zm-46.55-44.836l-1.929 2.996 4.44.372 3.28 3.175 3.258 1.072-.776-4.061-1.522-4.813-5.393-3.826-3.913-1.459.142 4.07 2.412 2.474zm18.426-7.323l3.65-.086-1.58 2.86-.028 3.79 2.141 4.12 4.134 1.265 3.529-.708 3.685-7.673 2.74-3.182-2.405-3.554-1.573-7.616-3.272-2.28-3.359-2.632-2.547-6.836-4.638.672.875 2.967-2.042.894-1.38 3.805-1.38 5.334 1.266 5.192 2.184 3.668zM-2.902 99.992l2.79 1.395 9.013-.93-4.14 3.411.256 2.453 3.03-.172 5.03-3.275 6.76-1.194 1.216-3.733-.348-3.983-2.092-.357-1.779 1.38-.782-2.953-.676-4.076-2.064-1.016-1.828 3.154 2.853 7.901-3.486-.607-3.543-4.856-5.614-2.86-1.878 2.374-2.718 7.944zm16.05-30.076l-2.596-2.074-1.067-.472-2.05 3.06-.035 1.43 3.316.008 2.433-1.952zm-1.038 8.831l.662-2.853-2.81-1.516-2.91.994-1.615 3.046 2.96 3.01 3.713-2.68zm20.697 23.77l3.287-.794.91-5.9-.064-4.254-1.522-3.976-.157 1.144-2.803-.5-3.002 2.924-2.15-.264.129 6.378 3.273-.622-.043 4.627 2.142 1.237zm-2.334 32.615l-3.6-2.81-3.351-3.01-.619-4.42-1.252-6.379-2.234-2.746-1.985-1.108-1.757 1.015 1.415 6.858-1.003 2.667-1.63-6.421-1.82-2.224-2.256 3.44-2.774-3.404-4.44 2.052.996-3.19-2.042-1.337-5.343 4.177-1.387 2.653-1.672 4.84 3.486 1.66 3.08-.086-4.624 2.474 1.053 2.238 2.832.122 4.261-.48 3.856 1.402-2.604 1.03-2.81-.264-3.08 1.008-1.33.622 2.454 4.54 1.771-.629 2.725 1.538 1.082 2.61 3.55-.522 5.051-.83 3.742-1.895 2.32-.343 3.43 1.516 3.606.873.669-2.046-1.274-2.18 3.273-.458.235-2.553zm0 0l-3.6-2.81-3.351-3.01-.619-4.42-1.252-6.379-2.234-2.746-1.985-1.108-1.757 1.015 1.415 6.858-1.003 2.667-1.63-6.421-1.82-2.224-2.256 3.44-2.774-3.404-4.44 2.052.996-3.19-2.042-1.337-5.343 4.177-1.387 2.653-1.672 4.84 3.486 1.66 3.08-.086-4.624 2.474 1.053 2.238 2.832.122 4.261-.48 3.856 1.402-2.604 1.03-2.81-.264-3.08 1.008-1.33.622 2.454 4.54 1.771-.629 2.725 1.538 1.082 2.61 3.55-.522 5.051-.83 3.742-1.895 2.32-.343 3.43 1.516 3.606.873.669-2.046-1.274-2.18 3.273-.458.235-2.553zm5.507-.7l-1.395 2.53-1.757 1.781 2.725 2.532 1.622-.608 2.69 1.687 1.237-1.952-1.216-2.167-.598-1.094-1.195-1.044-2.113-1.666zm-12.53-21.06l-1.515-1.552-2.675.286-.676.987 3.11 4.827 1.757-4.548zm20.413 9.417l2.141-4.955 2.376-1.323 2.982-6.25-3.814-1.766-4.155-.258-1.978 1.981-1.046 3.025-.028 3.447 1.245 5.856 2.277.243zm12.201-16.447l4.098-.128 5.72-1.152 2.555.916 2.974-1.616 1.245-2.031-.449-3.232-2.134-3.025-3.244-.572-4.063.693-3.173 1.745-2.91-.672-2.69-.358-1.265-1.93-2.291-1.867.455-3.168L49.17 87.1l-3.927.022-2.213-2.853-4.112-.572-.754 3.647 2.312 2.674 4.127 1.037 1.999 3.64.242 4.004.69 4.284 5.3 2.445 3.23.915zM-7.27 93.278l3.707-3.611 1.864-.422 1.536-3.025.27-6.987L-2.63 80.6l-3.06-.128-4.098 5.856-3.386 6.422 2.703 1.794 3.202-1.265zm51.353 11.563l1.089-2.96-.726-2.475-1.743-2.803-2.867 2.16-1.06 3.518 2.419 1.995 2.888.565zm-5.912 8.18l-.52-2.06-3.557.902-2.376-1.509-2.362 3.433 2.198 4.49-4.07-.836-.042 2.152 4.959 5.041 1.38 2.417 1.921.522 3.273-2.438.356-5.87-3.017-2.911 1.857-3.333zM-14.47 222.96l-.825-1.673-1.993-1.266-.989-1.466-.675-1.072-1.879-.33-1.223-.479-2.092-.686-.17.73.768 1.701 2.056.558.355.88 1.786 1.072.598 1.08 3.273 1.373 1.01-.422zm86.585-55.512l-1.423-1.51-1.466.358-.178-2.188-2.283-1.458-2.184-1.624-1.16-1.251-1.018.736-.37-2.116L60.59 158l-.683 4.384-.256 3.654-1.736 2.245 2.704-.429.683 2.61 2.838-2.31 1.978-2.416 1.117 2.045 3.102 1.08 1.779-1.416zm-85.753-37.578l5.25-2.99v-2.767l2.477-4.583 4.895-4.784 2.504-1.767-2.142-3.003-1.935-2.11-5.094-.407-2.846-1.545-6.744 1.166 1.95 4.455-1.73 4.598-1.38 4.913-.854 2.76 4.603 3.354 1.046 2.71zm95.507 19.529l.228-.722-.022-2.267-1.558-1.488-1.828.751-.847 2.982.498 2.546 2.234-.257 1.295-1.545zm16.947 5.392l3.138 4.72 2.454 2.037 3.5-5.627.62-3.526-3.138-.336-2.867-4.791-3.166-1.173-4.696-3.554 3.664-2.596-1.885-5.391-1.736-2.396-4.817-2.395-2.077-3.97-3.707 1.424-.256-2.76-2.746-3.09-4.426-3.368-1.885 2.653-3.949 1.903.3-4.334-3.423-7.187-5.058 2.904-1.843 5.506-1.572-4.233 1.465-4.556-5.15 1.895-2.05 2.854-1.53 6.02.634 6.472 2.831.029-2.084 2.803 1.657 2.117 3.238.893 4.219 1.731 7.256 1.301 3.615-.743 1.067-1.73 1.572 1.994 1.758.33 2.113 3.546-1.281 1.416 4.041 1.88 3.052 2.632.769 1.824.547 2.317-2.582 4.955-.697 2.46.668 1.73-4.105.616-3.75.085-1.315 3.483 1.686 1.594 5.77-.736-.029-1.352 2.903 2.253 2.974 2.345-.697 1.266 2.419 2.16 4.283 2.524 5.407 1.71-.327-1.495-2.078-2.625-2.817-3.84 5.001 3.576 2.519 1.187.69-3.175-1.295-4.505-.825-1.238-2.71-2.166-2.1-2.796.25-2.818 2.59-.643zM51.98 39.26l1.665 5.213 3.53 4.205 6.979-.78 4.489 1.409-3.116 4.326-1.573-1.273-5.45-.507.847 5.942 2.818 4.32-.57 3.718-3.536 2.474-1.615 3.911 3.238 1.895 2.717 6.114-5.336-4.076-1.216.673.982 6.707-3.686 2.024.25 4.183 3.77.45 2.967 1.03 5.862-1.315 5.215 2.338 5.33-5.142-.043-2.16-3.408.344-.278-2.03 2.79-2.74.945-3.682 3.08-2.74 1.893-3.403-1.65-5.077 1.38-1.895-2.746-1.352 6.04-1.165 1.274-2.253 4.112-1.859 3.415-9.632 3.251-3.533 4.71-7.951-4.34.071 1.807-3.075 4.824-2.853 4.867-6.364.085-4.098-3.65-4.319-4.283-2.095-5.329-1.302-4.318-1.065-4.319-1.073-5.763 2.846-1.06-1.809-6.097.701-3.579 1.838-2.632 2.61-1.516 8.395-2.177-4.298-2.476-.815-2.93 5.7-3.914 2.395-2.326.472-2.967 2.746.434 4.755 2.333 3.926zm52.933 189.498l-.697-1.415-.754.9.498.973 2.533 1.223.74-.186.982-1.187-1.85.079-1.452-.387zM64.36 173.082l.434 1.165 1.409.1 2.333-2.388.043-.851-2.74-.043-1.48 2.017zm44.203 47.51l-2.042-1.287-2.625-.78-.69.265 1.857 1.459 2.582.958.968-.057-.05-.558zm17.701 3.425l-.256-1.601-1.394.515.619-2.224-1.992-.944-.918.75-1.772-.843.698-1.08-1.338-.665-1.302 1.051 1.323-2.732 1.068-2.002.384-.872-.925-.143-1.729 1.108-1.238 1.81-2.063 4.948-1.672 1.83.868.816-1.245 1.05.306.88 3.87.093 2.142-.179 1.913.723-1.408 1.38 1.188.1 2.312-2.56.555.379-.434 2.41 1.31.55.903-.107.84-2.581-.613-1.86zm-15.076 3.404l-1.999 3.261-3.294.415-2.59-1.438-.654-2.195-.633-3.19 1.885-2.023-1.764-1.494-2.981.307-4.184 2.524-3.201 3.898-1.694.479 2.298-2.718 2.875-3.983 2.54-1.358 1.672-2.224 2.063-.215 2.995.022 4.269.658 3.372-.508 2.512-2.589 3.287-1.137 1.43-1.13 1.451-1.222-.142-3.712-.804-1.265-1.551-.45-.79-2.897-1.28-1.108-3.18-.901-1.794-2.017-2.653-2.024.803-2.288-2.205-4.476-2.597-4.927-1.55-3.562-1.324 1.867-1.907 4.326-2.888 2.124-1.445-2.26-1.821-.608-.662-4.998.057-3.432-3.557-.315-.605-1.623-2.454-2.46-1.857-1.459-1.65 1.13-2.05-.415-3.422-1.18-1.387 1.001.668 6.565.868 3.661-2.355 4.112 2.426 2.874 1.352 3.175.164 2.446-1.103 2.503-2.262 2.474-3.195 1.63 1.409 1.81 1.039 5.291-1.082 3.347-1.537 1.044-2.966-3.06-1.445-3.698-.619-3.403.328-2.997-2.17-.336-3.294-.2-2.113-1.487-2.498-.98-1.43-1.702-1.992-1.387-3.707-1.595-2.788.73-.932-2.825-.897-3.568-2.931-.644.107-4.584.775-3.203 2.163-4.72 2.44-3.504 2.32-.55.135-2.897 1.572-1.916 2.853-.3 2.312-3.14.584-2.073 1.92-4.098.598-2.503 2.064 1.51 2.774-.773 3.906-3.547.256-2.531-1.408-2.846 1.487-2.904-.121-2.767-2.675-2.825-2.946-.85-2.832-.444-.106 6.229-1.452 4.69-2.084 3.79-1.928-3.54.597-4.01-2.383-3.59-2.668 4.354.007-5.713-3.707-1.166 1.772-2.867-2.71-6.858-2.021-2.796-2.633-1.03-2.362 4.598-.156 6.68 2.326 2.352 2.135 3.51-.904 5.514-1.608-.143-1.266 4.205.014-5.006-3.088-1.845-1.771.951.227 3.34-2.91-.129-3.094.837-3.522-2.396-2.227.43-2.006-2.94-1.608-1.315-1.594.55-2.426.25-1.288 1.867 2.035 2.281-2.17 2.66-2.127-3.16-1.7.929-5.386.622-3.608-1.137 2.804-2.674-2.69-2.79-1.956.358-2.747-.943-4.667-2.067-3.052-2.41-2.419-.336-.754 1.688-2.447.936-.27-4.397-2.655 3.933-3.372-5.235-1.38-.636-.448 2.796-1.487 1.358-1.373-2.424-3.266 1.466-2.988 2.539-2.967-.701-2.419 1.788-1.75 2.345-2.078-.515-3.137-2.717-3.721-1.387-.014 19.772-.008 25.335 1.964.122 1.942 1.116 1.395 1.744 1.771 2.575 1.943-2.181 1.999-1.28 1.06 2.038 1.345 1.594 1.828 1.73 1.245 2.711 2.042 4.205 3.394 2.288.057 2.231-1.11 1.68.042 1.774 2.412 2.467.349 2.689 2.554 1.401-.284 1.995 1.11 2.832 3.614 1.302 1.423 1.351 3.863 3.025.27.007H42.134l.007-1.173.676-.014.356 1.68.619.515 1.394.186 2.035.48 1.935.929 1.615-.393 2.455.78.81-1.188 1.132-.472.44-.736.45-.394 1.856.615 1.373.072.477.407.669 1.702 2.24.45-.348.845.79.865-.342 1.115.84.365-.42.98.534.093.377-.43.391.644 1.494.358 1.516.028 1.615.294 1.785.557.648.901 1.295 2.174-.64.93-1.623-.386-1.01-1.745.256 1.78-.953 1.552.106 1.316-.163.765-1.288.908-.94 1.495-.44.944 1.095.171 1.48-.858.875-.758.59-.121 1.097.271.533-.421.975-.344 1.736-.336-.178-.822-.092.028-.612.144-.797-.258.597-.944.605-.329 1.409-.4 1.686-.38.882.523.555-.608.633-.386.427.207.022.043 2.042-1.952.903-.522 3.03-.022h3.68l.198-.7.64-.143.847-.444.712-1.301.612-2.253 1.522-2.216.662.772 1.337-.5.89.85v3.947l1.302 1.61 2.22-.344 3.194-.093-3.465 2.331.078 2.353 1.516.2 2.227-1.995 1.978-1.13 4.418-1.68 2.469-1.874-1.288-1.044-.207-2.088zm-38.177-50.843l.783-2.23-.505-.88-.818-.093-.769 1.287-.092.293.526 1.266.875.357zM-28.486 202.63l1.11-1.68-1.11 1.68zm-2.419 2.353l-1.914.272-.939-.444-.12 1.087.37 1.48 1.01 1.044.74 1.524 1.202 1.501.796.007-1.735-2.645.59-3.826zM294.572 324.47l-.125 2.35.82.267-.659.713-.79.534-.784 1.052-.431.93-.118 1.615-.475.765-.015 1.514-.593.562-.073 1.197-.286.151-.19 1.103.52.909.132 2.43.366 1.852-.205 1.053.41 1.168 1.193 1.131 1.105 2.56-.805-.21-2.76.347-.549.238-.585 1.297.46.902-.365 2.415-.256 2.055.556.367 1.435.793.563-.367.176 2.22-1.574-.021-.842-1.132-.754-.88-1.573-.288-.462-1.075-1.259.65-1.64-.289-.687-.93-1.303-.188-.96.051-.117-.634-.71-.05-.937-.124-1.266.303-.893-.05-.512.187.11-2.43-.681-.756-.154-1.248.3-1.225-.41-.786-.036-1.269-2.497.014.183-.728-1.046.008-.11.353-1.274.08-.52 1.174-.307.512-1.135-.288-.673.288-1.362.159-.783-1.06-.468-.656-.593-1.211-.505-1.507-6.054-.022-.725.238-.593-.036-.849.274-.285-.627.52-.216.065-.88.337-.52.747-.417.541.202.703-.772 1.113.022.132.57.768.36 1.208-1.269 1.193-.98.52-.642-.066-1.658.893-1.954.937-1.031 1.354-.966.234-.642.052-.735.336-.7-.11-1.139.257-1.78.402-1.255.615-1.074.117-1.211.183-1.406.806-1.024 1.098-.649 1.69.685 1.304.743 1.5.202 1.53.389.615-1.211.285-.159.93.202 2.291-1.002.805.425.667-.057.307-.49.761-.174 1.545.21 1.317.043.681-.21 1.237 1.666.923.238.549-.339.951.137 1.142-.425.49.858z"/>
        <path d="M261.77 317.598l1.598-.158.358-.518.317.043.482.453 2.431-.77.82-.792 1.012-.712-.193-.713.545-.187 1.866.13 1.818-.943 1.392-2.224.985-.82 1.219-.353.22.878 1.116 1.274v.827l-.31.85.124.626.668.583 1.474.892 1.054.814.02.662 1.295 1.05.806.872.49 1.209 1.446.799.31.64-.641.209-1.24-.043-1.453-.209-.716.173-.29.49-.626.057-.758-.425-2.156 1-.875-.2-.268.157-.579 1.21-1.44-.39-1.411-.2-1.226-.742-1.591-.684-1.033.648-.758 1.022-.172 1.404-1.24-.116-1.309-.338-1.15 1.065-1.012 1.872-.207-.583-.083-.914-.881-.648-.717-1.037-.165-.72-.909-1.05.152-.598-.193-.849.151-1.562.462-.367z"/>
        <path d="M257.574 342.265l-.714-.704-.578.345-.769.88-1.564-2.164 1.449-1.13-.714-1.358.653-.514 1.285-.25.15-.91 1.02.984 1.687.088.585-.969.238-1.357-.21-1.6-.899-1.204.823-2.37-.476-.404-1.415.161-.537-1.049.143-.895 2.401.08 1.544.536 1.517.484.136-1.1 1-1.908 1.136-1.087 1.292.345 1.225.118-.11 1.233-.57 1.093-.375 1.277-.238 1.813.102 1.16-.313.711-.047.749-.218.653-1.258.983-.871 1.05-.83 1.989.061 1.688-.483.653-1.108.998-1.123 1.291-.714-.366-.122-.58-1.034-.022-.653.785zM250.743 224.293l.076.482-.298.658.88.482.989.072-.152 1.088-.852.449-1.44-.332-.422 1.062-.92.084-.34-.417-1.086.886-.934.124-.838-.56-.664-1.153-.928.417.028-1.199 1.419-1.505-.062-.684.886.254.532-.462 1.648.02.401-.587zM225.31 322.757l-.876.021-1.353-.395-1.235.022-2.3.352-1.338.581-1.92.733-.372-.05.145-1.652.186-.251-.055-.797-.822-.84-.614-.136-.566-.553.421-.89-.193-.977.09-.588h.31l.11-.883-.151-.388.186-.28.718-.244-.476-1.623-.449-.832.159-.697.386-.15.249-.187.538.301 1.491.022.36-.596.33.043.56-.23.304.869.448-.258.801-.302.87.445.338.668.87.43.676-.51.912-.078 1.325.524.51 2.879-.814 1.694-.504 2.276.836 1.73zM95.356 455.867v7.537h2.21l1.245.093-.685 1.412L96.358 466l-1.017-.114-1.223-.285-1.502-1.056-2.166-.506-2.6-1.933-2.107-1.832-2.844-3.744 1.702.692 2.902 2.232 2.74 1.212 1.069-1.547.67-2.282 1.9-1.362 1.474.392zm.855-79.875l.81 2.96 1.488-.293.25.542-.707 2.253-2.247 1.077.067 3.665-.435.713.619.878-1.459 1.39-1.355 2.11-.737 2.069.2 2.218-1.275 2.381.95 4.058.538.435-.008 2.204-1.178 2.36.044 2.047-1.562 1.611.008 2.296.626 2.468-1.238.927-.552 2.296-.487 2.674.347 3.238-.833.549.479 3.137.936 1.041-.678 1.163.958.556.22 1.055-.898.535.22 1.662-.75 3.815-1.098 2.51.243 1.505-.656 1.91-1.584 1.341.185 3.28.729 1.142 1.377-.2-.036 2.375.854 1.875 4.995.435 1.915.506-1.834-.02-.995.805-1.864 1.19-.331 3.124-.877.079-2.328-1.099-2.364-2.317-2.571-1.876-.648-2.046.582-1.869-1.04-2.096-.264-5.234.876-2.874 2.18-2.275-3.137-.849 1.966-2.545.7-4.678 2.299.977 1.075-5.684-1.385-.713-.648 3.387-1.304-.385.648-3.865.708-4.877.95-1.769-.597-2.496-.17-2.838.87-.078 1.267-3.994 1.43-3.872.876-3.544-.479-3.501.619-1.904-.25-2.824 1.208-2.76.375-4.307.663-4.543.648-4.813-.154-3.473-.427-2.96 1.06-.534.553-1.07 1.01 1.42.272 1.511 1.083.891-.649 2.047 1.113 2.382z"/>
        <path d="M257.222 327.666l-.258-.108-1.227.26-1.263-.275-.983.138-3.37-.051.303-1.589-.813-1.33-.945-.346-.422-.903-.532-.289.03-.556.532-1.43.983-1.95.598-.022 1.234-1.184.79-.03 1.161.831 1.426-.686.192-.838.466-.823.318-1.026 1.108-.838.421-1.422.436-.456.296-1.061.547-1.308 1.744-1.589.11-.686.23-.368-.82-.824.066-.65.583-.123.82 1.322.141 1.365-.074 1.366 1.123 1.856-1.152-.022-.584.145-.946-.203-.45.961 1.219 1.192.901.347.296.845.65 1.394-.325.556-1.042 2.051-.495.369-.163 1.567.207.852-.162.6.975 1.054.177.723.769 1.04.946.65.088.917.222.585-.148 1.084-1.648-.477-1.677-.527zM453.077 294.21l-1.733 1.007-1.647-.65-.058-1.806.989-.957 2.19-.592 1.154.05.45.806-.88.929-.465 1.213zm34.773-76.759l3.495.985 2.377 2.164.81 2.82h3.05l1.74-1.179 3.315-.885-1.052 2.685-.78 1.078-.688 3.184-1.354 2.777-2.434-.5-1.726 1 .53 2.398-.287 3.248-1.024.072.015 1.378-1.297-1.6-.794 1.521-3.101 1.157.315 1.406-1.733-.1-.952-.835-1.382 1.884-2.213 1.414-1.633 1.678-2.807.756-1.475 1.207-2.163.7 1.067-1.193-.422-1.006 1.59-1.75-1.06-1.377-1.747.928-2.27 1.813-1.24 1.67-1.969.122-1.024 1.2 1.06 1.72 1.64.414.065 1.128 1.59.728 2.248-1.792 1.783.978 1.296.065.33 1.313-2.844.693-.938 1.335-1.955 1.235-1.03 1.706 2.162 1.328.788 2.363 1.224 2.177 1.36 1.806-.035 1.735-1.26.636.48 1.235 1.18.714-.307 1.863-.508 1.799-1.125.2-1.468 2.434-1.625 2.92-1.862 2.627-2.764 2.013-2.793 1.82-2.263.25-1.224.957-.695-.7-1.138 1.072-2.808 1.07-2.126.329-.688 2.249-1.11.121-.53-1.542.473-.828-2.693-.685-.952.35-2.02-.558-.952-.87.315-1.243-1.833-.392-.967-.814-1.711 1.156-1.955.25-1.604-.014-1.074.528-1.038.314.3 2.449-1.074-.057-.179-.5-.057-.885-1.475.621-.867-.393-1.49-.806.588-1.792-1.275-.421-.48-2-2.12.365.244-2.592 1.905-1.842.079-1.834-.057-1.714-.874-.535-.673-1.328-1.174.171-2.163-.335.68-.95-.938-1.42-1.432.963-1.69-.556-2.313 1.449-1.826 1.685-1.618.278-.881-.607-1.06-.057-1.432-.521-1.081.571-1.325 1.67-.172-1.77-1.225.471-2.341-.221-2.27-.521-1.633-.992-1.561-.45-.673-1.093-1.132-.328-2.026-1.492-1.611-.707-.831.55-2.793-1.613-1.969-1.478-.566-2.592 1.44.314.064-1.206-.802-1.22.2-1.957-2.155-2.848-3.301-.993-.594-1.899-1.483-1.163-.358-.721-.3-1.435.071-.986-1.217-.578-.659.257-.508-2.37.572-.593-.279-.606 1.92-1.235 1.388-.514 2.127.35.76-1.678 2.577-.314.716-1.057 3.165-1.45.28-.606-.158-1.55 1.375-.713-1.804-4.819 3.974-1.128 1.031-.635 1.447-5.183 3.981.963 1.117-1.327.093-2.992 1.669-.278 1.525-2.02.788-.25.53 2.12 1.69 1.592 2.864 1.12 1.382 2.371-.773 3.377.723 1.235 2.384.485 2.707.393 2.428 1.749 1.239.307.916 2.549 1.182 1.62 2.212-.064 4.147.607 2.67-.379 1.984.407 2.972 1.635h2.428l.888.828 2.334-1.435 3.244-.935 3.007-.1 2.35-.956 1.439-1.464 1.403-.928-.322-.914-.645-1.07 1.053-1.814 1.131.257 2.063.571 1.998-1.5 3.065-1.106 1.468-1.899 1.41-.828 2.915-.385 1.582.328.222-1.035-1.819-2.063-1.61-.95-1.548 1.1-1.983-.464-1.139.378-.515-1.22 1.418-3.02.98-2.32 2.414 1.163 2.828-1.956-.021-1.378 1.812-3.377 1.117-1.035-.029-1.799-1.103-.785 1.662-1.65 2.492-.6 2.664-.092 3.007.992 1.762 1.221 1.239 3.291.751 1.385.702 1.95.752 3.076zM81.085 331.594l-.853-.46-.982-.643-.57.307-1.693-.272-.483-.838-.37.035-2-1.11-.27-.608.747-.147-.085-.97.462-.706.99-.133.846-1.222.761-1.02-.74-.467.377-1.132-.448-1.787.427-.51-.313-1.655-.811-1.048.256-.95.647.14.377-.587-.462-1.152.242-.293 1.024.063 1.501-1.376.819-.21.02-.65.37-1.668 1.146-.922 1.252-.035.157-.412 1.565.16 1.572-.998.776-.447.96-.957.712.119.519.524-.384.67-1.28.335-.506.992-.775.566-.577.74-.249 1.404-.547 1.159 1.024.126.256.908.441.433.157.789-.235.726.071.412.491.16.477.685 2.56-.189 1.16.252 1.409 1.683.804-.21 1.437.105 1.138-.223.705.342-.363 1.047-.441.657-.157 1.404.399 1.292.569.58.064.44-1.01.97.725.426.534.684.604 1.935-.377.244-.384-1.152-.555-.615-.661.67-3.885-.041.022 1.215 1.166.202-.064.748-.398-.203-1.124.321-.007 1.411.882.712.313 1.11-.05.846-.896 5.342-.996-1.04-.598-.042 1.288-1.984-1.53-.914-1.195.167-.718-.335-1.103.517-1.487-.245-1.174-2.039-.925-.503-.633-.922-1.323-.921zM67.44 316.272l-1.244-.464-.467-.435.262-.362-.081-.457-.64-.501-.9-.406-.794-.265-.148-.613-.606-.376.148.612-.459.495-.524-.576-.737-.206-.311-.42.016-.635.303-.663-.647-.295.524-.399.344-.272 1.515.553.524-.273.73.177.384.428.672.14.548-.443.59 1.136.884.84 1.081.893-.892.184.016.833.475.31-.344.25.09.377-.188.42zM66.857 285.079l1.752.172 1.587.023 1.896.804.808.867 1.89-.266.713.547 1.717 1.46 1.254 1.053.664-.031 1.211.476-.151.656 1.493.094 1.528.952-.238.539-1.348.296-1.363.117-1.392-.187-2.892.226 1.356-1.296-.822-.6-1.305-.157-.7-.671-.483-1.327-1.14.086-1.889-.625-.605-.491-2.632-.367-.707-.46.757-.586-1.983-.117-1.45 1.217-.843.032-.289.577-.995.258-.865-.227 1.067-.726.433-.85.916-.523 1.03-.461 1.537-.226zM299.364 256.66l1.36-1.215-1.835.849-1.453-.042-.288.69-.144.017-.957.1.467 1.14.986.366 2.073-1.148-.065-.225zM266.532 220.994l-.93-.618-.936.17-1.558-1.004-.708.247-1.122 1.344-1.494-1.058-1.13-1.413-1.022-.803-.214-1.405-.35-1.004 1.458-.733.743-.85 1.437-.664.507-.648.53.393.893-.362.95 1.104 1.495.3-.122.935 1.087.695.3-.873 1.372.379.193 1.058 1.487.2.922 1.645-.593.008-.315.594-.457.147-.129.749-.386.162-.057.301-.679.34-.894-.054z"/>
        <path d="M251.625 200.857l.036 1.366 2.01.814-.02 1.236 2.018-.654 1.112-.952 2.245 1.373.934 1.097.468 1.737-.553.909.716 1.199.495 1.78-.156 1.134.815 2.078-.885.341-.524-.37-.503.61-1.424.625-.736.8-1.445.69.347.945.213 1.322 1.012.756 1.12 1.33-.695 1.417-.715.392.283 1.977-.19.509-.617-.618-.949-.087-1.423.537-1.75-.13-.283.792-1.005-.829-.602.16-2.125-.915-.41.654-1.686-.022.248-2.166 1.006-2.107-2.861-.567-.935-.821.113-1.374-.396-.712.226-2.158-.34-3.408h1.197l.503-1.243.496-3.074-.376-1.148.39-.727 1.657-.189.368.756 1.353-1.693-.454-1.3-.092-2 1.502.466zM318.1 306.134l.555.681-.076.92-1.344.527 1.016.596-.873 1.176-.521-.387-.563.155-1.319-.04-.042-.664-.176-.612.79-1.029.831-.974 1.008.193z"/>
        <path d="M256.288 198.912l-1.22 2.725-2.126-1.894-.283-1.408 2.983-1.139.646 1.716zm-3.615-2.917l-.5 1.304-.603-.377-1.466 2.464.552 1.64-1.3.508-1.538-.44-.827-1.866-.058-3.514.34-.948.581-1.057 1.793-.22.711-.98 1.64-1.01-.072 1.84-.602 1.153.246.981 1.103.522zM89.175 292.452l.268-.355 1.679.014 1.272.529.567-.056.391.73 1.173-.042-.069.612.958.077 1.058.75-.797.835-1.027-.445-.981.083-.706-.097-.39.375-.828.126-.322-.501-.713.299-.859 1.39-.552-.32-.115-.583.046-.557-.552-.611.522-.348.168-.786zM255.508 284.338l-6.846 4.056-5.784 4.127-2.814.932-2.216.204-.021-1.326-.926-.339-1.247-.6-.47-.98-6.74-4.621-6.738-4.691-7.516-5.313.043-.43v-.148l-.022-2.646 3.227-1.665 1.995-.345 1.631-.607.77-1.143 2.336-.91.086-1.7 1.154-.205.905-.854 2.614-.395.364-.903-.528-.5-.69-2.49-.115-1.447-.755-1.538 1.917-1.32 2.165-.423 1.261-1.009 1.924-.74 3.383-.438 3.306-.204 1.004.367 1.88-.967 2.138-.021.812.571 1.36-.148-.405 1.263.32 2.314-.47 1.99-1.232 1.326.178 1.785 1.631 1.396.022.572 1.225.938.855 4.134.648 2.004.107 1.044-.35 1.827.143 1.016-.256 1.214.178 1.39-.798.91 1.183 1.594.078.931.705 1.206.933-.395 1.582 1.002zM71.145 338.942l.939-1.469-.384-.861-.675.918-1.059-.869.36-.55-.297-1.787.618-.297.328-1.221.668-1.271-.126-.798.97-.424 1.21-.784 1.772 1.123.327-.035.429.847 1.5.276.504-.311.87.65.756.466.246 1.49-.548 1.278-1.929 2.062-2.124.776-1.084 1.716-.334 1.328-1.002.812-.738-.996-.718-.212-.731.156-.044-.72.504-.467zM280.016 191.03l.23-2.333-.717.5-1.239-1.42-.174-2.326 2.471-1.144 2.457-.606 2.116.688 2.019-.127.292.718-1.385 2.348.578 3.71-.835 1.241-1.615-.007-1.678-1.451-.856-.486zM299.981 271.276l-.56.939-.425 1.747-.538 1.193-.468.408-.659-.742-.9-1.034-1.416-3.326-.199.21.822 2.454 1.219 2.314 1.502 3.552.73 1.223.637 1.266 1.786 2.475-.397.386.064 1.434 2.316 1.972.348.451H280.27v-16.311l-.596-1.877.51-1.456-.304-1.012.715-1.143 2.643-.036 1.913.626 1.97.706.92.364 1.531-.75.815-.677 1.757-.196 1.41.298.546 1.18.46-.78 1.587.561 1.552.138.978-.597zM205.167 274.941l2.636.007 6.372.02-6.372-.02-2.636-.007-.08.062-.037.027-1.296 2.195-1.355.781-.743 1.31-.043 1.132-.547 1.227-.684.336-1.136 1.33-.7 1.475.132.7-.67 1.076-.787.562-.095.953-.087.871.444-.686 7.997.014-.386-2.983.502-1.063 1.908-.185-.065-5.39 6.707.117v-3.244l.044-.418v-.144zM316.441 306.756l-.671-.588-.804-1.057-.867-.582-.511-.633-1.706-.728-1.343-.019-.476-.386-1.147.43-1.189-.829-.615 1.36-2.28-.379-.21-.728.846-2.69.19-1.22.615-.57 1.447-.304.993-1.057 1.14 2.14.539 1.689 1.077.892 2.672 1.722 1.09 1.037 1.064 1.05.615.621.965.544-.594.443zM213.346 239.266l.1-1.838-.815-1.139 2.834-1.9 2.454.48 2.698-.02 2.133.453 1.667-.137 3.242.082.802 1.022 3.692 1.186.73-.562 2.261 1.18 2.326-.337.108 1.502-1.904 1.708-2.569.535-.179.85-1.238 1.392-.773 2.03.78 1.406-1.16 1.097-.429 1.577-1.517.48-1.424 1.845-2.54.034-1.918-.041-1.252.836-.766.899-.988-.2-.737-.801-.572-1.372-1.875-.37-.165-.796.744-.905.272-.658-.687-.727.551-1.612-.801-1.488.866-.205.078-1.18.33-.363.021-1.975.93-.686-.558-1.29-1.173-.088-.344.322-1.18.007-.509-1.262-.816.377z"/>
        <path d="M306.718 303.015l1.21.94 1.168-.488.484.437 1.368.022 1.737.825.52.717.883.66.82 1.197.683.667-.705.904-.67.954.15.567.035.616 1.119.036.477-.143.441.358-.434.725.74 1.119.734.975.762.724 6.53 2.396 1.68-.015-5.647 6.04-2.599.085-1.78 1.413-1.275.036-.548.631h-1.367l-.805-.674-1.823.84-.591.831-1.332-.158-.441-.23-.47.051-.627-.014-2.528-1.707h-1.389l-.683-.653v-1.126l-1.04-.337-1.175-2.187-.912-.467-.356-.803-1.01-.982-1.226-.144.684-1.155 1.054-.05.299-.617-.021-1.814.59-2.123.94-.574.207-.832.855-1.556 1.203-1.018.812-2.016.32-1.771 2.322.43zM108.946 452.825l2.709-1.939 1.926.807 1.355-1.29 1.806 1.449-.678 1.139-3.055.98-1.016-1.146-1.919 1.478zM290.174 140.06l-.293 3.825 3.08 3.535-1.856 3.881 2.335 5.639-1.354 4.08 1.812 3.442-.823 2.933 2.972 3.017-.76 2.196-1.861 2.444-4.297 5.248-3.646.319-3.53 1.466-3.266.836-1.167-2.175-1.941-1.324.444-4.052-.974-3.832.96-2.536 1.819-2.79 4.59-4.973 1.347-.984-.215-2.012-2.793-2.28-.673-1.913-.058-7.877-3.13-3.648-2.678-2.698 1.203-1.474 2.235 2.94 2.62-.276 2.157 1.324 1.912-2.437.988-4.143 3.115-1.97 2.578 2.31zM591.51 364.622l-.233.992-.153.114-1.186.51-1.193.433-.24-.773.933-.425.593-.114 1.093-.645.386-.092zm-3.891 3.055l-.846-.255-.72.71.18.914 1.033.255 1.16-.284.306-1.084-.64-.596-.473.34zM250.83 237.86l-.639 1.989-.873-.523-.447-1.741.392-.97 1.245-.999.323 2.244zm-11.514-22.952l1.347 1.418.99-.234 1.684 1.356.433.254.557-.062.908.771 2.777.544-.976 1.996-.248 2.05-.529.49-.88-.262.062.722-1.41 1.583-.027 1.266.921-.433.66 1.218-.082.778.57 1.032-.666.833.494 2.092 1.045.337-.22 1.156-1.746 1.494-3.801-.716-2.805.853-.22 1.576-2.235.337-2.165-1.183-.701.564-3.548-1.19-.77-1.026.997-1.597.365-5.423-1.987-2.931-1.423-1.439-2.95-1.1-.192-2.114 2.502-.633 3.238.75-.611-3.33 1.821 1.273 4.49-2.32.577-2.484 1.684-.62.282 1.074.894.048.894 1.232zM252.628 338.887l-1.85-2.001-1.194-1.632-1.092-2.045.058-.653.391-.638.437-1.434.366-1.47.61-.113 2.614.022-.013-2.378.855-.135 1.098.27 1.066-.256.225.107-.135.866.507 1.015 1.336-.157.45.39-.777 2.293.847 1.164.2 1.547-.225 1.314-.553.936-1.592-.085-.964-.95-.141.88-1.214.24-.616.497.674 1.313zM219.647 202.305l-1.093 2.451-1.544-.73-1.26.052.422-1.915-.423-1.937 1.712-.149 2.186 2.228zm5.159-14.698l-2.025 4.064 1.93-.51 2.072.02-.493 2.994-1.7 3.213 1.957.227.148.369 1.687 4.107 1.296.546 1.167 3.837.54 1.305 2.295.624-.23 2.078-.965.944.756 1.652-1.7 1.653-2.531-.029-3.219.859-.884-.617-1.248 1.46-1.748-.354-1.33 1.185-1.005-.617 2.774-3.292 1.693-.688h-.013l-2.956-.531-.533-1.277 1.977-1-1.039-1.76.358-2.17 2.814.298.276-1.943-1.268-2.093-.027-.05-2.295-.602-.452-.936.689-1.56-.621-.972-1.02 1.66-.107-3.405-.958-1.837.688-3.802 1.47-3.057 1.513.298 2.267-.29zM314.807 239.467l.297-1.062-.495-1.705-1.146-.936-1.096-.292-.729-.777.24-.305 1.677.438 2.92.411 2.702 1.215.347.471 1.202-.398 1.853.53.601 1.03 1.252.577-.517.339.976 1.34-.268.286-1.068-.146-1.478-.704-.488.398-2.758.385-1.91-1.208zM127.507 327.02l-.728.799-.912.15-.258-.588-.429-.09-.592.573-.83-.43.483-.897.163-.958.327-.905-.742-1.244-.15-1.441.994-1.818.646.234 1.402.498 2.021 1.78.313.86-1.13 1.923zM233.68 320.143l-3.126 1.139-1.109.667-1.797.562-1.776-.549.092-.77-.86-1.674.519-2.2.838-1.64-.526-2.784-.277-1.479.05-1.118 3.46-.09.881.146.64-.32.923.153-.149.618.831 1.014v1.423l.192 1.542.497.715-.44 1.757.156.972.533 1.236zM137.937 19.055l6.731-9.708 7.032.763 2.551-6.384L161.333 2l16.007 2.247 12.533 13.26-3.701 5.921-7.668.663-10.783 1.448 1.008 2.597 7.096-1.598 6.03 4.93 3.895-4.366 1.665 5.1-2.2 7.825 5.102-4.943 9.725-5.386 6.01 2.718 1.122 5.792-8.168 9.03-1.13 2.783-6.402 2.04 4.638.563-2.344 8.21-1.615 6.841.064 10.885 2.408 5.95-3.13.363-3.294 2.768 3.695 4.494.471 6.862-2.143.727 2.594 6.527-4.445.535 2.322 2.953-.657 2.504-2.823 1.077-2.794.022 2.508 4.622.029 2.946-3.966-2.732-1.03 1.776 2.702 1.634 2.63 3.909.757 4.957-3.573 1.156-1.543-2.326-2.48-3.552.686 4.187-2.322 3.146 5.273.25 2.766.32-5.374 5.015-5.445 4.373-5.86 1.862-2.208.028-2.072 2.047-2.787 5.443-4.309 3.488-1.386.207-2.673 1.191-2.873 1.134-1.722 2.94-.028 3.252-1.008 2.967-3.273 3.531.808 3.36-.9 3.46-1.022 3.966-2.823.242-2.958-3.302-4.01-.022-1.943-2.268-1.336-4.137-3.473-5.479-1.015-2.96-.271-4.201-2.78-4.473.721-3.688-1.336-1.805 1.98-6.17 3.015-2.033.793-2.325.422-4.465-2.294 2.04-1.086.849-1.8.813-2.459-1.862-.136-3.959.786-3.196 1.858-.085 4.088 1.605-3.445-3.874-1.793-2.147-1.994.885-1.672-1.562 2.237-6.064-1.215-2.518-1.594-4.807-2.408-7.783-2.551-2.974.021-3.303-5.38-4.772-4.252-.606-5.353.335-4.887.614-2.33-2.675-3.48-5.464 5.26-2.832 4.037-.485-8.575-2.397-4.516-3.88.278-3.81L92.64 66l7.339-5.108.772-4.023-5.403-4.108 1.744-4.737 6.939-8.795 2.915-1.412-.836-6.113 4.745-3.738 6.16-2.29 6.16-.128 2.186 4.494 5.317-8.075 4.78 5.55 2.809 1.134 4.166 4.572-4.767-7.683zM197.819 305.31l.267-.925 2.264-.065.476-.489.66-.036.817.517.646.008.69-.35.416.598-.898.473-.906-.036-.89-.445-.773.481-.371.022-.505.292zM215.363 316.332l-.542-.047-.39.767-.55-.007-.37-.407.123-.767-.802-1.168-.5.21-.412.048-.528.108.02-.699-.308-.503.061-.556-.418-.808-.535-.686h-1.536l-.446.36-.535.04-.33.415-.219.536-1.028.842-.844-1.134-.748-.754-.493-.244-.48-.387-.213-.849-.281-.42-.563-.32.858-.937.582.034.501-.326h.425l.302-.258-.164-.638.212-.204.034-.659.926.02 1.386.476.425-.048.144-.21 1.043.15.28-.11.11.714.31-.007.5-.258.315.068.535.489.823.156.528-.421.625-.258.459-.272.384.055.425.42.234.537.788.808-.398.496-.075.624.412-.19.24.231-.103.57.59.557-.385.143-.157.659.446.787.473 1.535-.714.23-.185.265.151.367-.11.835z"/>
        <path d="M250.423 331.09l-.372-.37.681-2.75 3.203.061.014 2.944-2.859-.027zM277.96 257.375l1.054.846 1.501-.138 1.44.175-.049.437 1.054-.299-.24.737-2.783.212.02-.409-2.355-.489.358-1.072zm5.613-15.288l-.599 1.7-.461.298-1.178-.073-1.006-.255-2.342.7 1.337 1.503-.978.43h-1.075l-1.02-1.371-.364.583.434 1.59.964 1.24-.73.577 1.074 1.203.958.752.027 1.458-.936-.838-.855.153.572 1.313-.634.138-.688-.503.826 2.881h-.4l-.31-.912-.392-.014-.179.963-.31-.22.07-.539-.387-.758h-.44l.082.612-.172.197-.427-.394-.262-.736.358-.416-.248-.54-.282-.277-.29-.066-.337-.685.4-.38.248-.35.385.073.173-.299.406-.117.468.336.38.124.268-.452-.648-.059-.385-.138-.861.204-.84.036-.751-1.196-.124-.182.117-.467-.978-.839-.131-.751.895-1.284.117-.868.627-.386.041-.708 1.26-.24.738-.591 1.047.05.317-.474.365-.087 1.425.08 1.55-.744 1.364.948 1.756-.255.02-1.357.951.679zM51.929 305.355l-1.1-.363-1.338-.037-.979-.413-1.154-.857.054-.61.244-.493-.298-.392 1.032-1.712 2.744-.008.061-.71-.351-.131-.237-.458-.795-.486-.795-.711h.97v-1.198h2.003l1.98.022-.016 1.677-.168 2.38h.634l.704.385.183-.32.627.269-.97.805-1.017.588-.153.4.168.406-.443.537-.505.123.115.247-.398.232-.733.523zM200.655 310.813l-.98-1.026-.771-.155-.419-.7.007-.37-.556-.518-.117-.526.973-.405.608.077.49-.276 3.386.104-.033.837-.202.258.156.811-.287.328h-.405l-.477.414-.556-.043zM112.119 315.492l1.26.729 1.193 1.294.048 1.025.727.05 1.028.961.76.694-.308 1.782-1.165.516.103.46-.356 1.025.856 1.428.61.007.254 1.11 1.172 1.712-.466.07-1.063-.162-.623.523-.87.347-.604.085-.212.381-.946-.099-1.186-.919-.137-.912-.493-.997.308-1.683.535-.693-.446-.92-.658-.297.254-.87-.452-.452-1.001.085-1.295-1.5.52-.544-.04-.919 1.185-.318.473-.368-.658-.735.171-.729z"/>
        <path d="M56.909 306.914l-.344-.639-.617-.18.143-.825-.272-.222-.416-.144-.881.244-.072-.28-.61-.33-.43-.41-.595-.172.416-.53-.158-.403.144-.395.953-.581.91-.797.209.086.444-.366.574-.029.186.165.315-.1.932.187.932-.058.645-.23.237-.23.638.108.48.144.524-.05.401-.18.918.287.322.043.61.388.58.467.731.316.53.574-.687-.043-.28.28-.695.273h-.51l-.444.265-.401-.093-.344-.316-.208.058-.258.495-.194-.022-.036.431-.702.567-.366.244-.208.259-.595-.417-.43.546-.423-.014-.473.05.043 1.012-.294.014-.25.474zM268.551 228.134l.429.997.56.733-.68.958-.8-.566-1.223.038-1.519-.424-.826.058-.378.527-.636-.585-.372 1.054.87 1.177.378.778.813.932.674.546.668 1.035 1.563.926-.195.411-1.658-.9-1.027-.887-1.614-.733-1.487-1.832.36-.193-.807-1.054-.038-.861-1.135-.399-.542 1.1-.523-.856.044-.887.063-.038 1.23.09.327-.437.599.417.693.052-.006-.72.611-.264.177-1.041 1.405-.694.561.321 1.324 1.112 1.455.495zM85.663 292.097l1.174.092 1.668.33.171 1.128-.15.793-.467.35.494.618-.041.56-1.277-.35-.906.14-1.174-.147-.9.386-1.036-.646.172-.666 1.77.288 1.456.168.693-.463-.878-.89.014-.793-1.215-.322z"/>
        <path d="M264.084 226.492l.635-1.93-.369-.648 1.08-.007.144-1.245.977.78.704.334 1.613-.371.15-.612.766-.095.93-.473.204.197.903-.379.45-.728.63-.182 2.05.932.41-.313 1.06.83.136.815-1.169.634-.909 2.039-1.155 2.01-1.538.553-1.196-.124-1.47.765-.717.437-1.579-.56-1.435-1.26-.608-.365-.376-.997zM472.682 352.679l-.847.036-2.669-1.43 1.873-.404 1.054.62.703.622-.114.556zm7.482-.202l-1.722.447-.244-.245.18-.693.868-1.242 1.987-.809.2.404.037.621-1.306 1.517zm-13.143-4.167l.725.542 1.241-.166.502.866-2.324.412-1.392.274-1.083-.014.689-1.17 1.104-.014.538-.73zm10.065-.007l-.294 1.127-3.02.577-2.676-.253-.007-.743 1.6-.426 1.262.606 1.342-.151 1.793-.737zm-28.724-2.664l3.852.202.445-.838 3.73.975.732 1.314 3.02.369 2.468 1.205-2.295.773-2.21-.816-1.822.058-2.088-.152-1.88-.368-2.33-.773-1.478-.202-.84.253L444 346.8l-.351-.873-1.844-.152 1.377-1.935 2.44.123 1.62.787.833.151.287.737zm52.499-1.141l-1.033 1.379-.194-1.524.359-.729.423-.686.46.592-.015.968zm-15.037-5.567l-.753.671-1.392-.368-.394-.866 2.037-.094.502.657zm6.486-.73l.731 1.538-1.7-.83-1.679-.166-1.133.13-1.392-.072.48-1.105 2.483-.087 2.21.592zm7.382-3.913l.56 3.256 2.08 1.206 1.678-2.137 2.31-1.213h1.787l1.721.7 1.492.722 2.16.383.036 6.57.036 6.615-1.794-1.668-2.044-.412-.495.578-2.547.065.853-1.654 1.27-.563-.523-2.202-.969-1.697-3.903-1.711-1.657-.166-3.02-1.863-.595.982-.775.18-.46-.736-.006-.874-1.536-.99 2.167-.721 1.435.036-.173-.534-2.94-.008-.797-1.198-1.794-.369-.853-.996 2.711-.484 1.033-.657 3.229.823.323.737zm-17.907-5.17l-1.614 1.993-1.513.39-1.937-.39-3.35.1-1.758.29-.287 1.523 1.8 1.79 1.084-.909 3.752-.686-.165.924-.876-.288-.875 1.177-1.772.78 1.901 2.577-.365.693 1.807 2.325-.014 1.329-1.076.592-.79-.708.976-1.653-1.972.78-.503-.556.259-.78-1.45-1.184.151-1.964-1.341.614.172 2.346.079 2.888-1.277.297-.861-.593.574-1.855-.309-1.943-.846-.014-.624-1.38.832-1.32.287-1.596 1.011-3.033.424-.83 1.707-1.495 1.571.592 2.54.282 2.31-.087 1.987-1.459.351.44zm6.938.577l-.108 1.755-1.04-.195-.309 1.22.832 1.062-.566.238-.81-1.27-.596-2.571.401-1.61.668-.73.143 1.098 1.19.173.195.83zm-21.752-1.4l2.253 1.863-2.382.238-.674 1.372.086 1.82-1.937 1.379-.043 2-.775 3.083-.294-.715-2.289.91-.796-1.235-1.435-.115-1.004-.643-2.389.722-.732-.975-1.32.109-1.657-.231-.308-2.701-1.005-.556-.968-1.719-.28-1.761.237-1.863 1.198-1.336.337 1.343 1.377 1.134 1.299-.412 1.284.144 1.17-1.018.96-.173 1.902.563 1.643-.426 1.033-2.801.774-.7.696-2.29h2.31l1.744.34-1.141 1.82 1.478 1.905-.352.925zm-24.255 15.466l-2.224.044-1.693-1.69-2.582-1.646-.861-1.22-1.521-1.64-.997-1.509-1.528-2.816-1.765-1.675-.588-1.726-.74-1.567-1.814-1.263-1.055-1.726-1.514-1.126-2.094-2.224-.18-1.026 1.299.08 3.113.39 1.78 1.97 1.556 1.366 1.112.837 1.908 2.166 2.045.03 1.693 1.378 1.162 1.683 1.528.917-.803 1.639 1.155.7.724.05.345 1.402.703 1.126 1.477.18.976 1.271-.502 2.506-.115 3.12zM220.07 204.461l.357 2.419-1.644 2.966-3.854 1.929-3.078-.49 1.76-3.44-1.132-3.434 2.954-2.7 1.644-1.634.45 1.872-.45 1.85 1.35-.043zM304.339 263.777l-.434.729-.904-.32-.514 1.529.62.25-.629.32-.115.596 1.17-.312.062.882-1.24 3.591-1.63-3.855.717-.75-.169-.132.656-1.063.505-1.736.354-.584.071-.02h.833l.23-.403.665-.035.035.951-.336.348zM386.575 256.225l2.176 2.863-.202 1.966.802 1.227-.065 1.212-1.453-.315.571 2.604 1.988 1.478 2.82 1.629-1.287 1.048-.788 2.145 1.966.86 1.91 1.113 2.645 1.27 2.776.294 1.172 1.14 1.561.209 2.444.524 1.685-.036.23-.89-.267-1.428.16-.968 1.236-.481.173 1.78.036.451 1.844.854 1.28-.351 1.706.15 1.656-.064.144-1.385-.824-.717 1.634-.287 1.844-1.687 2.335-1.456 1.699.56 1.446-.962.954 1.42-.687.962 2.184.337.159.861-.716.417.166 1.384-1.446-.409-2.624 1.55.058 1.277-1.114 1.866-.108 1.076-.904 1.808-1.583-.502-.08 2.26-.455.739.217.918-1.005.517-1.063-3.444-.564.007-.333 1.392-1.106-1.134.622-1.24.911-.13.933-1.858-1.164-.38-1.887.035-1.923-.301-.181-1.543-.969-.114-1.605-.962-.716 1.514 1.46 1.17-1.265.825-.448.803 1.244.589-.34 1.32.701 1.636.318 1.779-.296.79-1.374-.03-2.501.445.115 1.615-1.084 1.263-2.914 1.435-2.27 2.482-1.525 1.327-2.018 1.37v.962l-1.012.517-1.829.739-.947.115-.607 1.578.419 2.69.108 1.701-.853 1.945-.014 3.465-1.048.1-.919 1.543.615.668-1.85.574-.68 1.377-.817.581-1.916-1.887-.94-2.841-.781-2.052-.709-.961-1.077-1.966-.499-2.57-.354-1.29-1.844-2.849-.838-4.047-.608-2.705.008-2.568-.39-2.01-2.95 1.285-1.432-.258-2.646-2.605.976-.782-.6-.846-2.379-1.852 1.352-1.463 4.46.007-.404-1.894-1.135-1.12-.231-1.714-1.33-1.005 2.233-2.368 2.357.173 2.119-2.382 1.272-2.34 1.967-2.324-.03-1.672 1.729-1.37-1.642-1.17-.7-1.614-.717-2.117.99-1.047 3.08.595 2.257-.366zM321.738 255.775l1.302.732.156 1.407-1.01.824-.462 1.858 1.387 2.238 2.439 1.281 1.03 1.76-.327 1.668h.633l.022 1.217 1.102 1.19-1.18-.106-1.344-.19-1.465 2.168-3.705-.183-5.617-4.568-2.972-1.612-2.403-.626-.804-2.844 4.416-2.463.753-2.9-.192-1.773 1.095-.606 1.024-1.534.854-.387 2.318.324.703.626.953-.415z"/>
        <path d="M339.347 252.275l1.788-.469 1.44-1.393 1.354.069.89-.456 1.448.228 2.244 1.235 1.622.269 2.316 2.131 1.513.083.181 2.008-.825 2.931-.558 1.69.884.338-.87 1.263.667 1.821.16 1.442 1.534.38.166 1.448-1.838 2.021.998 1.159.818 1.331 1.94.966.058 1.911.97.352.167.993-2.925 1.11-.767 2.484-3.815-.641-2.215-.49-2.287-.283-.869-2.628-.97-.387-1.563.387-2.041 1.041-2.483-.71-2.049-1.663-1.954-.62-1.354-2.077-1.498-2.945-1.093.358-1.289-.738-.76.87-1.122-1.166-.021-1.194h-.644l.333-1.635-1.05-1.724-2.483-1.256-1.411-2.194.47-1.82 1.028-.808-.16-1.38-1.324-.717-1.317-2.856-1.108-1.952.391-.752-.63-2.842 1.39-.71.319.944 1.027 1.146 1.39.324.739-.07 2.396-1.834.76-.186.593.738-.695 1.228 1.267 1.283.5-.118.644 1.8 1.925.504 1.412 1.215 2.88.414 3.171-.635zM203.004 152.856l-.465 3.126 2.296 3.21-2.645 3.494-5.879 3.056-1.758.803-2.681-.65-5.683-1.402 2.006-1.981-4.433-2.232 3.604-.893-.087-1.375-4.272-1.095 1.373-3.119 3.088-.718 3.176 3.265 3.095-2.617 2.565 1.368 3.32-2.588zM262.078 249.192l-.719 1.922.3.754-.42 1.238-1.523-.906-1.017-.263-2.781-1.238.277-1.258 2.333.221 2.035-.27 1.515-.2zm-12.583-7.482l1.195 1.811-.278 3.327-.903-.16-.81.83-.755-.657-.078-3.028-.455-1.453 1.095.132.989-.802zm6.309-14.937l2.852.726-.213 1.376.477 1.183-1.587-.401-1.621.982.113 1.362-.241.774.654 1.376 1.87 1.349 1.004 2.192 2.219 2.11 1.565-.015.483.574-.562.512 1.786.934 1.465.774 1.707 1.328.207.47-.37.906-1.11-1.176-1.736-.415-.839 1.632 1.444.927-.235 1.3-.832.145-1.067 2.116-.832.187.007-.747.405-1.32.434-.533-.775-1.445-.612-1.266-.825-.318-.59-1.093-1.28-.463-.861-1.03-1.473-.166-1.557-1.162-1.821-1.694-1.359-1.515-.619-2.627-.995-.312-1.622-.892-.918.367-1.152 1.245-.832.193.227-1.161-1.08-.34-.513-2.102.69-.836-.59-1.038.085-.78.86.594.96-.132 1.118-.94.348.442.953-.09.434-1.127 1.473.353.882-.47.156-1.155 1.21.401.234-.54 1.97-.49.427.961zM76.043 294.502l1.23.168.97.46.299.517-1.282.033-.553.317-1.022-.305-1.041-.692.215-.434.767-.129zM301.977 264.706l.35-.72 2.234.905 3.93-2.427.809 2.77-.38.335-4.023 1.132 2.005 2.235-.666.37-.33.747-1.531.302-.48.795-.873.672-2.233-.35-.065-.315 1.002-3.545-.05-.87.3-.658zM499.744 260.481l.255.828-1.117 1.463-.813-.771-1.017.562-.523 1.405-1.293-.685.014-1.138 1.095-1.44 1.124.28.812-1.023 1.463.519zm12.558-7.406l-.75 2.003.347 1.246-1.032 1.744-2.53 1.152-3.483.152-2.827 2.766-1.329-.93-.077-1.815-3.449.54-2.346 1.146-2.318.043 2.007 1.772-1.322 4.042-1.279.987-.96-.915.487-2.133-1.251-.691-.806-1.643 1.873-.742 1.039-1.52 1.993-1.26 1.455-1.679 3.944-.735 2.12.504 2.07-4.444 1.322 1.203 2.904-2.529 1.124-.994 1.244-3.155-.34-2.954.834-1.679 2.106-.49 1.081 3.682-.056 2.118-1.83 2.593.035 2.615zm5.816-18.68l1.392.598 1.4-1.188.437 3.133-2.94.757-1.738 2.708-3.116-1.858-1.081 2.968-2.205.043-.276-2.694.982-2.118 2.12-.151.58-3.876.586-2.226 2.325 2.968 1.534.936zM313.761 333.14l1.218 1.573-1.438.77-.506.796-.777.137-.286 1.353-.66.769-.404 1.277-.829.632-2.948-1.916-.147-1.112-7.452-3.894-.352-.213-.015-2.026.587-.776 1.012-1.263.748-1.394-.902-2.198-.242-.961-.976-1.332 1.262-1.147 1.394-1.264 1.07.323v1.078l.705.625h1.43l2.604 1.634.645.014.484-.048.455.22 1.372.15.609-.796 1.877-.803.83.645h1.407l-1.797 2.177zM373.136 237.835l.455-1.126 1.326-.366 3.332.888.31-1.519 1.147-.542 2.884 1.092.736-.285 3.353.068 3 .27 1.01.93 1.247.373-.281.583-3.188 1.376-.72 1.004-2.597.298-.764 1.594-2.142-.332-1.392.488-1.932 1.166.28.577-.576.563-3.822.373-2.502-.794-2.193.19.195-1.424 2.2.414.742-.767 1.536.245 2.59-1.79-2.395-1.33-1.442.63-1.493-.949 1.695-1.647zM438.582 311.292l-.782-1.09-.968-2.162-.46-2.538 1.236-1.751 2.483-.405 1.805.302 1.585.831.872-1.464 1.708.78.446 1.412-.24 2.517-3.232 1.61.844 1.273-2.017.148-1.668.838zM491.457 238.253l.266.456-.724-.157-.833.864-.574.87.075 1.817-.99.551-.342.442-.724.735-1.278.408-.826.666-.062 1.068-.225.272.765.395 1.086 1.075-.28.585-.813.156-1.352.116-.745 1.088-.86-.082-.117.218-.929-.456-.232.45-.56.197-.068-.45-.5-.217-.511-.388.526-1.068.45-.285-.17-.442.485-1.32-.13-.401-1.114-.272-.901-.66 1.557-1.599 2.111-1.347 1.318-1.802.909.796 1.653.095-.3-1.34 2.957-1.109.765-1.449zM487.305 248.427l1.608 2.889.458 1.568.013 2.75-.697 1.3-1.687.456-1.488.974-1.68.2-.206-1.278.345-1.776-.823-2.488 1.381-.407-1.275-2.073.113-.222.837.083.724-1.105 1.315-.118.79-.159zM272.682 238.514l-.106.555-.294-.022-.146-.987-.547-.274-.49-.735.425-.613.546-.202.318-.908.408-.158.326.389.432.173.294.44.375.13.449.504.326-.015-.261.67-.27.325.074.202-.514.1zM327.864 269.697l.436 1.122-.188.581.677 1.918-1.49.064-.526-1.202-1.882-.247 1.55-2.45z"/>
        <path d="M373.143 240.25l-1.15.5-2.634 1.868-.878 1.895-.75.015-.542-1.252-2.549-.086-.407-2.189-.978-.021.15-2.719-2.391-2.002-3.434.214-2.349.4-1.913-2.503-1.635-1.059-3.106-2.031-.37-.25-5.155 1.68.078 10.108-1.028.129-1.399-2.096-1.356-.758-2.27.565-.886.894-.114-.658.493-1.123-.379-.944-2.32-.93-.907-2.483-1.1-.7-.07-.916 1.948.264.079-2.06 1.7-.457 1.748.422.364-2.797-.357-1.796-2.006.143-1.699-.715-2.32 1.28-1.863.616-1.021-.473.207-1.502-1.278-1.974-1.485.079-1.7-2.025 1.157-2.303-.585-.622 1.592-3.413 2.063 1.81.25-2.282 4.126-3.469 3.127-.086 4.42 2.218 2.362 1.28 2.128-1.338 3.17-.057 2.563 1.638.585-.937 2.806.136.507-1.51-3.249-2.21 1.92-1.595-.37-.894 1.92-.865-1.442-2.29.914-1.158 7.488-1.188.978-.851 5.012-1.28 1.8-1.46 3.597.759.629 3.583 2.091-.83 2.57 1.167-.164 1.845 1.92-.193 5.012-3.212-.728 1.073 2.556 2.618 4.469 8.284 1.07-1.667 2.756 1.831 2.877-.815 1.1.572.964 1.824 1.399.601.857 1.323 2.577-.415 1.064 1.882-1.528 2.024-1.664.286-.092 2.99-1.114 1.33-3.97-.965-1.442 5.193-1.028.637-3.962 1.13 1.8 4.829-1.371.715.157 1.545-1.235-.393-1-.98-2.97-.286-3.32-.072-.728.3-2.855-1.151-1.135.572-.307 1.602-3.299-.937-1.313.387zM442.376 303.77l.679-.924.097-1.736-1.695-1.8-.134-2.042-1.59-1.693-1.582-.143-.418.726-1.231.057-.627-.363-2.202 1.238-.052-1.864.515-2.213-1.411-.092-.12-1.266-.91-.655.448-.783 1.784-1.38.186.498 1.112.057-.313-2.44 1.082-.313 1.224 1.686.94 1.935 2.575.021.814 1.843-1.336.548-.605.761 2.508 1.252 1.74 2.462 1.32 1.829 1.583 1.437.53 1.451-.381 2.05-1.858-.755-.948 1.416zM302.547 261.214l-.701.038-.243.432h-.879l.935-2.035 1.3-1.775.055-.09 1.178.135.43.984-1.43.947zM395.054 317.501l-.28 2.31-.777.634-1.623.506-.892-1.764-.326-3.19.845-3.624 1.284 1.243.871 1.566zM216.932 324.056l-.58.015-2.268-.973-1.993-1.558-1.875-1.119-1.483-1.323.526-.658.117-.593.989-1.119 1.028-.958.47-.05.573-.228.918 1.258-.141.827.424.438.627.008.447-.827.62.052-.102.6.22.994-.479.907.644.563.698.139.934.855.062.812-.211.256zM290.666 392.631l.703.701-.617 1.139-.344.766-1.12.365-.372.76-.718.233-1.506-1.818 1.069-1.481 1.09-.913.94-.467zM277.29 203.322l-.15-.866.195-.945-.81-.547-1.915-.61-.392-2.954 2.098-1.101 3.07.234 1.804-.355.255.746.974.227 1.764 1.718.17 1.563-1.503 1.115-.425 1.931-1.986 1.278-1.77-.028-.439-1.037zM244.321 216.454l.273 1.03-.078 1.984-.395.105-.307-.399.151-2.552z"/>
        <path d="M274.218 197.823l.07-2.715.97-2.308 1.855-1.268 1.56 2.764 1.581-.071.38-2.843 1.68-.663.863.463 1.694 1.383 1.63.007.949.848.161 1.774.64 2.13-2.122 1.375-1.195.598-1.897-1.724-1.047-.228-.274-.748-1.94.356-3.302-.235zM261.209 285.83l-1.424.805-1.137-1.192-3.187-.941-.885-1.372-1.597-1.02-.942.402-.713-1.228-.079-.948-1.194-1.624.806-.926-.18-1.416.259-1.235-.144-1.034.353-1.86-.108-1.064-.655-2.04.986-.539.172-.991-.216-.97 1.389-.905.619-.754.985-.682.115-1.832 2.367.826.849-.208 1.683.402 2.677 1.056.942 2.097 1.813.46 2.841.977 2.151 1.156.986-.603.964-1.07-.468-1.803.634-1.15 1.453-1.113 1.388-.323 2.727.488.69 1.063.749.008.64.402 2.007.28.49.776-.727 1.127.309.999-.518 1.437.604 1.853v20.378l-2.316.008-.03.89-8.042-4.094-8.05-4.145z"/>
        <path stroke-linecap="round" d="M214.545 274.161l-.022-2.636 3.265-1.66 2.018-.344 1.65-.605.78-1.139 2.363-.907.087-1.694 1.168-.204.915-.85 2.645-.394.368-.9-.534-.5-.699-2.481-.115-1.442-.764-1.532-.88-.028-2.09-.528-1.924.169-1.218-1.027-1.485-.014-.641 1.484-1.348 2.468-1.5.977-2.025 1.076-1.297 1.575-.274 1.223-.771 1.983.504 2.833-1.686 1.884-1.01.598-1.592 1.526-1.881.246-.937.787 2.609.007 6.306.021-6.306-.02-2.61-.008z"/>
        <path d="M285.132 222.643l.547-.435 1.519-.295 1.69.92.938.112 1.037.787-.163.99.832.472.327 1.208.8.73-.155.422.424.295-.604.204-1.355-.077-.22-.4-.482.231.163.506-.628.906-.4.963-.572.309-.416-1.286.245-1.208-.073-1.258-1.323-1.714-.726-1.23-.71-.87zM270.769 238.1l-.125-.538-.897 1.397.14.89-.435-.217-.573-.92-.897-.56.228-.478.301-1.57.67-.665.39-.27.543.494.302.404.677.306.786.59-.169.247-.382.636zM329.32 356.126l.512.848.478 1.325.32 2.425.498.947-.194.967-.34.603-.665-1.192-.36.603.367 1.5-.173.87-.534.47-.124 1.737-.763 2.398-.956 2.867-1.206 3.974-.741 2.951-.88 2.489-1.58.512-1.698.918-1.116-.554-1.545-.771-.534-1.136-.131-1.9-.68-1.696-.18-1.52.347-1.515.894-.364.007-.694.928-1.584.174-1.318-.45-.982-.368-1.296-.152-1.893.679-1.143.256-1.296.97-.07 1.088-.421.714-.365.86-.028 1.101-1.156 1.6-1.248.583-1.01-.263-.862.824.246 1.074-1.395.035-1.206.644-.897zM273.673 241.087l.241.021.088-.545 1.105-.417.422-.1.644-.155.864-.042.945.856.134 1.748-.362.085-.308.46-1.019-.05-.717.573-1.226.227-.777-.637-.268-1.125zM207.174 303.15l.651-.372.326-1.215.617-.05 1.36.572 1.095-.408.749.136.298-.457 7.8-.029.43-1.451-.34-.258-.936-9.065-.936-9.337 2.974-.036 6.56 4.754 6.558 4.683.458.994 1.213.608.902.343.02 1.344 2.157-.207.007 4.826-1.068 1.387-.166 1.28-1.727.321-2.648.179-.721.736-1.248.079-1.242.007-.485-.393-1.075.293-1.816.858-.368.643-1.511.915-.264.53-.81.414-.944-.272-.534.5-.284 1.402-1.546 1.687.049.687-.534.865.131 1.172-.804.3-.45.258-.306-.865-.561.229-.333-.043-.36.593-1.498-.021-.541-.3-.25.185-.596-.586.104-.6-.243-.243-.416.2.077-.658.402-.522-.797-.85-.236-.566-.43-.443-.388-.057-.465.286-.63.272-.535.443-.832-.164-.54-.515-.32-.072-.506.272-.312.007-.11-.75.09-.637-.167-.786-.728-.58-.381-1.172zM429.947 292.346l-1.181.932-1.426.102-.922 2.325-.85.386.98 1.872 1.282 1.552.82 1.399-.734 1.836-.699.386.483 1.056 1.347 1.661.23 1.166-.036.969.793 1.894-1.11 1.93-.98 2.12-.194-1.53.62-1.587-.677-1.224.165-2.266-.82-1.078-.656-2.507-.368-2.666-.872-1.749-1.332 1.064-2.298 1.5-1.131-.189-1.254-.488.699-2.63-.418-1.996-1.585-2.47.245-.78-1.181-.276-1.434-1.763-.13-1.756.707.335.036-1.566 1-.525-.215-.932.454-.75.079-2.296 1.578.51.9-1.836.108-1.092 1.11-1.895-.058-1.297 2.615-1.573 1.44.415-.165-1.406.713-.423-.158-.874 1.181-.175.677 1.355.88.547.064 1.748-.086 1.873-1.91 1.88-.244 2.644 2.132-.364.483 2.04 1.282.43-.59 1.82 1.498.824.878.4 1.477-.633.065.903-1.722 1.414-.432.801zM407.528 220.385l2.081-.525 3.763-2.652 3.003-1.468 1.709.957 2.06.043 1.315 1.454 1.97.106 2.855.773 1.913-2.149-.802-1.844 2.047-3.305 2.208 1.326 1.786.376 2.32.816.374 2.354 2.806 1.306 1.863-.575 2.49-.404 1.976.411 1.934 1.482 1.196 1.56 1.828-.028 2.483.49 1.814-.752 2.595-.504 2.89-2.17 1.182.333 1.034 1.036 2.349-.255-.957 2.305-1.392 2.993.506 1.213 1.119-.376 1.94.46 1.52-1.091 1.582.943 1.786 2.05-.218 1.028-1.554-.326-2.862.383-1.393.823-1.441 1.886-3.01 1.1-1.963 1.49-2.025-.568-1.111-.256-1.034 1.802.626 1.064.323.908-1.385.922-1.414 1.454-2.3.943-2.96.106-3.186.93-2.292 1.425-.873-.823h-2.384l-2.918-1.624-1.948-.404-2.623.376-4.072-.603-2.173.064-1.154-1.61-.9-2.532-1.217-.305-2.384-1.738-2.658-.39-2.342-.482-.71-1.227.76-3.355-1.358-2.348-2.813-1.113-1.66-1.582z"/>
        <path d="M206.78 303.015l-1.314-1.412-1.207-1.52-1.32-.55-.951-.606-1.115.022-.966.45-.994-.18-.681.664-.17-1.113.553-1.027.249-1.962-.22-2.076-.242-1.048.199-1.049-.511-1.013-1.05-.913.432-.713 7.796.014-.377-3.103.49-1.106 1.86-.193-.064-5.607 6.54.121v-3.374l7.49 5.372-3.046.035.958 9.317.958 9.046.348.257-.44 1.448-7.987.029-.305.456-.767-.135-1.122.406-1.391-.57-.632.05-.334 1.212zM300.609 356.03l-.563 1.556.563 2.679.707-.03.73.663.844 1.498.173 2.679-.873.439-.621 1.447-1.321-1.289-.145-1.469.426-.972-.122-.828-.794-.525-.563.187-1.163-.994-1.06-.533.613-1.915.635-.713-.39-1.7.404-1.655.347-.555-.513-1.728-.952-.907 1.977.374.412.562.686.95zM36.268 278.914l-.77 1.936-.345 1.58-.149 2.914-.19 1.05.346 1.173.614 1.05.396 1.65 1.313 1.58.46 1.207.776 1.036 2.105.565.819.872 1.737-.586 1.504-.207 1.483-.38 1.25-.364 1.257-.857.474-1.236.162-1.78.346-.621 1.335-.565 2.097-.493 1.752.072 1.2-.179.473.45-.063 1.03-1.067 1.264-.466 1.293.36.365-.296.914-.494 1.637-.502-.536-.417.036-.374.028-.706 1.265-.36-.25-.24.1.014.307-1.83-.021h-1.85v1.179h-.896l.734.7.734.479.22.45.324.128-.056.7-2.536.008-.953 1.686.275.386-.226.486-.049.6-2.239-2.222-1.024-.672-1.617-.543-1.102.15-1.596.78-.995.206-1.399-.543-1.483-.4-1.85-.95-1.483-.293-2.246-.965-1.652-1-.502-.558-1.109-.121-2.026-.665-.827-.957-2.125-1.193-.99-1.336-.472-1.037.657-.207-.205-.607.459-.55.007-.743-.664-.958-.184-.857-.663-1.087-1.745-2.157-1.991-1.708-.96-1.365-1.703-.9-.36-.543.304-1.372-1.01-.522-1.172-1.086-.495-1.565-1.066-.186-1.144-1.186-.932-1.107-.085-.715-1.067-1.729-.699-1.772.028-.893-1.433-.922-.657.1-1.13-.643-.318.95.325 1.115.19 1.736.686.95 1.469 1.58.325.536.303.157.255.786.353-.036.402 1.458.6.571.417.794 1.25 1.143.657 2.065.586.964.551 1.03.106 1.157.953.071.798.994.72.971-.049.386-.833.793-.353-.007-.523-1.322-1.292-1.236-1.427-1.057-1.017-.558.064-1.607-.297-1.2-.946-.687-1.363-.993-.261.286-.495-.586-1.221-.536-1.166-1.308.142-.171.812.129.734-.844.078-1.021-1.526-1.622-1.158-.636-.734-1.437-.735-1.514-.918-1.865-.805-2.115 2.253-.18 2.514-.256-.184.457 2.988 1.15 4.52 1.651 3.94-.021h1.568v-.965h3.432l.72.836 1.017.736 1.173 1.022.657 1.207.494 1.258 1.024.693 1.645.686 1.243-1.808 1.625-.043 1.39.915.997 1.558.685 1.329 1.165 1.286.438 1.565.558 1.05 1.54.686 1.405.486zM433.711 320.767l.16.98 1.347-.224.67-.783.465.177 1.209 1.15.859 1.274.116 1.28-.218.864.196.654.153 1.124.72.524.802 1.675-.037.64-1.448.13-1.93-1.403-2.416-1.505-.24-.967-1.18-1.273-.283-1.573-.735-1.035.225-1.389-.451-.81.357-.34 1.66.83zm35.806 3.289l-1.5.646-1.768-.32h-2.344l-.706 2.159-.786.66-1.049 2.642-1.667.402-1.929-.531-.975.163-1.186.96-1.303-.136-1.318.388-1.397-1.069-.343-1.266 1.493.653 1.58-.354.407-1.607.873-.36 2.446-.409 1.463-1.505 1.005-1.205.931.987.43-.646.975.06.117-1.211.094-.94 1.573-1.327 1.026-1.492.823-.006 1.048.966.094.831 1.347.531 1.703.572-.145.75-1.369.094.357.92z"/>
        <path d="M300.391 355.283l1.55-.16 2.477.554.543-.249 1.433-.048.735-.588 1.234.028 2.248-.761 1.639-1.135.338.879-.088 1.957.257 1.73.08 3.098.36.969-.61 1.431-.8 1.39-1.315 1.246-1.881.767-2.322.976-2.329 2.179-.793.373-1.44 1.446-.845.477-.177 1.466.978 1.557.404 1.217.029.622.36-.103-.059 2.047-.33.975.485.36-.309.878-.86.754-1.697.72-2.476 1.148-.904.795.177.9.521.145-.176 1.134-1.557-.014-.177-.954-.308-.962-.177-.767.368-2.373-.537-1.5-.984-2.947 2.167-2.359.544-1.487.316-.187.228-1.203-.331-.61.088-1.52.404-1.412-.007-2.552-1.065-.65-.985-.146-.44-.498-.956-.422-1.72.042-.131-.747-.199-1.418 6.253-1.646 1.183.954.573-.18.808.505.125.796-.434.934.147 1.41 1.345 1.239.632-1.39.889-.422-.177-2.574-.86-1.438-.741-.637-.72.028-.574-2.573zM264.662 391.62l-1.473-1.724-.778-1.659-.44-2.186-.488-1.623-.665-3.406-.043-2.619-.255-1.183-.771-.895-1.027-1.782-1.04-2.575-.432-1.335-1.622-2.07-.12-1.624.956-.397 1.19-.36 1.288.064 1.182.953.297-.152 8.05-.086 1.373 1.01 4.807.296 3.646-.859 1.629-.483 1.288.122.779.476.021.174-1.118.476-.61.007-1.26.83-.764-.873-3.058.743-1.48.065-.057 7.626-1.954.08v6.391l-.007 8.312-1.77 1.176-1.062.166-1.253-.433-.892-.166-.332-.981-.786-.628zM563.083 375.175l1.657 1.267 1.044.94-.763.497-1.117-.558-1.44-.92-1.304-1.083-1.332-1.43-.28-.688.863.034 1.138.688.886.688zM236.613 308.677l.05-1.407-2.31-.468-.056-.996-1.126-1.348-.27-.945.156-1.01 1.283-.08.74-.742 2.723-.18 1.774-.325.171-1.291 1.098-1.4-.007-4.868 2.814-.952 5.787-4.219 6.848-4.147 3.157.945 1.125 1.197 1.411-.808.492 3.369.748.562.036.685.827.736-.435.923-.77 4.313-.1 2.734-2.55 1.976-.863 2.74.834.765-.007 1.334 1.282.05-.199.967-.563.123-.064.649-.378.05-1.347-2.257-.47-.087-1.56 1.154-1.547-.598-1.076-.123-.577.289-1.176-.058-1.176.88-1.019.05-2.415-1.067-.948.505-1.02-.036-.747-.78-2.01-.771-2.145.245-.52.447-.278 1.19-.577.83-.136 1.832-1.525-1.183-.72.007z"/>
        <path d="M249.39 321.492l-2.11.688-.777-.096-.783.427-1.624-.041-1.087-1.205-.668-1.391-1.442-1.267-1.53.02h-1.791l.116-3.12-.051-1.232.384-1.218.624-.6.986-1.205-.21-.523.398-.785-.456-1.157.08-.654.137-1.749.587-.792.283-1.136.53-.427 2.182-.234 2.045.737.761.743 1.037.035.964-.482 2.458 1.019 1.037-.048 1.197-.84 1.196.055.587-.276 1.095.117 1.574.572 1.588-1.102.478.083 1.37 2.155.385-.048.805.785-.225.351-.109.654-1.71 1.515-.537 1.247-.29 1.012-.428.434-.414 1.356-1.087.799-.312.978-.457.785-.188.798-1.4.655-1.138-.792-.776.027-1.21 1.13-.588.02-.965 1.86zM59.647 310.1l-.656-.63-.886-.805-.42-.671-.798-.623-.953-.903.21-.307.317.3.142-.147.589-.077.236-.461.278-.014-.04-.987.445-.049.4.014.405-.532.562.406.196-.252.345-.238.662-.552.034-.42.183.02.243-.482.196-.056.325.308.379.09.419-.258h.48l.656-.266.264-.273.65.042-.163.196-.095.448.19.735-.433.685-.203.805-.068.889.108.51.048.903-.291.196-.176.853.129.525-.393.511.095.532.284.329-.453.42-.555-.133-.317-.406-.602-.168-.433.259-1.251-.525zM243.268 205.536l1.715.09.39 1.099-.515 2.94-.522 1.189h-1.245l.354 3.26-1.141-.723-1.303-1.355-1.914.646-1.51-.243 1.06-.862 1.812-4.685zM288.183 126.773l6.305 4.389-2.596 1.568 2.207 3.594-3.429 2.243-1.625.506.856-3.93-2.588-2.287-3.127 1.956-.992 4.114-1.92 2.419-2.164-1.315-2.631.267-2.243-2.919-1.208 1.47-1.25.225-.295 3.573-3.796-.858-.532 2.968-1.934-.021-1.33 3.685-2.013 5.535-3.127 6.68.733 1.569-.704 1.793-1.999-.077-1.308 4.156.122 5.655 1.287 2.095-.669 4.733-1.675 2.68-.891 2.215-1.352-2.356-3.983 4.41-2.688.872-2.79-1.906-.719-4.121-.64-9.326 1.855-2.728 5.32-3.643 3.983-4.635 3.688-6.54 4.845-9.677 3.38-3.988 5.542-6.955 4.421-2.525 3.314.31 3.07-4.916 3.674.267zM408.199 274.95l-.159.907.267 1.337-.23.833-1.683.034-2.441-.49-1.56-.196-1.17-1.068-2.773-.275-2.643-1.19-1.907-1.04-1.964-.806.787-2.009 1.286-.98.837-.525 1.625.672 2.044 1.404 1.134.309.678 1.028 1.575.423 1.646.934 2.29.49zM577.328 422.174l.46 1.086 1.428-1.065.582 1.115v1.115l-.747 1.236-1.314 1.988-1.027 1.094.74 1.321-1.55.036-1.724 1.037-.539 1.825-1.141 2.862-1.58 1.278-1.005.824-1.852-.064-1.307-.952-2.19-.198-.337-1.051 1.084-2.103 2.534-2.748 1.3-.519 1.443-1.044 1.723-1.427 1.206-1.406.898-1.996.761-.675.302-1.47 1.414-1.207.438 1.108zm3.202-12.088l1.458 2.607.043-1.69.911.674.302 1.882 1.623.817 1.357.199 1.148-.959 1.02.291-.488 2.237-.61 1.485-1.537-.05-.539.781.187 1.108-.294.483-.761 1.399-.998 1.797-1.558 1.058-.345-.696-.84-.383 1.163-2.16-.66-1.427-2.169-1.03.058-.93 1.457-.888.338-1.946-.094-1.62-.818-1.66.057-.434-.962-1.016-1.586-2.159-.84-1.711.746-.192 1.099 1.342 1.565.632.567 2.16zM349.416 288.87l-.785 1.469-.949-.116-.434.512-.336 1.08.254 1.425-.194.259-.964-.007-1.309.791-.201 1.03-.479.446-1.3-.014-.823.532.008.85-1.017.583-1.159-.194-1.405.705-.972.115-.688-1.468-1.637-3.484 6.287-2.131 1.398-4.298-.964-1.54.052-.878.613-.907.007-.9.95-.432-.374-.302.172-1.44 1.069-.007.942 1.504 1.173.8 1.54.287 1.241.396.95 1.253.568.72.747.273-.007.482-.763 1.289-.336.605-.875.712zm-5.173-10.466l-.276.403-.396-.763.613-.763.261.194-.202.929zM75.066 317.045l-.587-.563-.379-1.057.436-.521-.448-.132-.329-.647-.884-.542-.776.125-.354.681-.72.487-.385.07-.17.41.84 1.056-.48.25-.26.293-.82.097-.31-1.168-.227.334-.587-.111-.354-.793-.726-.125-.461-.23h-.758l-.057.425-.202-.292.095-.39.145-.396-.07-.355.266-.236-.366-.292-.013-.786.689-.174.63.703-.037.417.707.083.17-.16.487.487.871-.146.752-.494 1.073-.396.606-.584.98.111-.07.195.991.07.79.34.574.584.67.543-.215.292.41 1.147-.335.584-.574-.14zM92.319 368.456l-.524 1.09-1.005.535-1.961-1.213-.175-.866-3.874-2.109-3.51-2.288-1.515-1.285-.81-1.711.321-.6-1.654-2.706-1.934-3.783-1.843-4.058-.802-.93-.614-1.488-1.522-1.328-1.396-.816.635-.903-.95-1.927.608-1.408 1.564-1.278.23.845-.559.476.05.737.809-.159.796.217.816 1.017 1.11-.83.37-1.357 1.2-1.754 2.353-.794 2.136-2.108.607-1.307-.272-1.523.524-.195 1.298.953.621.953.907.52 1.152 2.107 1.459.253 1.082-.534.705.346 1.173-.173 1.5.946-1.263 2.05.586.043.977 1.076-1.766-.094-.258.303-1.605.383-2.234 1.379-.146.939-.496.707.195 1.09-1.186.585v.859l-.517.368.817 1.827 1.089 1.241-.412.874 1.298.115.74 1.09 1.724.051 1.606-1.198-.133 3.104.894.238 1.102-.354 1.697 3.307-.426.693-.091 1.458-.042 1.762-.768 1.04.356.772-.453.7.844 1.761zM542.894 345.967l-.57.2-.874-.773-.888-1.274-.433-1.524.282-.194.216.595.614.45.982 1.267.953.68-.282.573zm-7.891-2.684l-1.062.164-.317.566-1.105.487-1.04.472h-1.075l-1.661-.58-1.155-.558.166-.623 1.812.294 1.105-.158.303-.959.289-.05.195 1.066 1.155-.15.57-.687 1.134-.716-.224-1.18 1.213-.036.412.329-.044 1.11-.671 1.209zm-9.697 3.83l1.805 1.316 1.314 2.14 1.163-.064-.08.894 1.567.344-.607.38 2.152.851-.224.587-1.343.143-.498-.522-1.74-.23-2.043-.307-1.574-1.288-1.148-1.11-1.054-1.76-2.643-.881-1.718.573-1.235.665.26 1.489-1.588.694-1.134-.336-2.094-.086-.036-6.556-.036-6.514 3.516 1.375 3.74 1.145 1.394 1.023 1.126 1.01.31 1.18 3.372 1.239.491 1.066-1.863.215.448 1.324zm12.036-5.791l-.635.53-.383-1.182-.47-.773-.916-.651-1.155-.852-1.459-.587.563-.48 1.09.559.686.437.852.48.809.837.773.637.245 1.045zM482.834 315.237l.198 1.344.116 1.136-.656 1.847-.696-2.055-.895 1.02.615 1.48-.546.942-2.254-1.171-.54-1.46.588-.955-1.215-.956-.601.84-.902-.078-1.42 1.128-.314-.59.751-1.703 1.209-.567 1.044-.762.676.912 1.455-.553.314-.906 1.352-.057-.116-1.567 1.55.963.164 1.02.123.748zm-4.582-3.78l-.69.668-.6 1.287-.601.603-1.182-1.401.396-.546.478-.568.212-1.265 1.058-.122-.307 1.372 1.42-1.969-.184 1.94zm-10.488 1.955l-2.547 1.919.942-1.416 1.387-1.25 1.147-1.41 1.003-2.026.342 1.66-1.263 1.121-1.011 1.402zm6.473-5.247l1.147.632h1.216l-.035.856-.887.862-1.216.611-.068-.949.137-1.042-.294-.97zm6.924-.554l.54 2.286-1.476-.539.041.683.471 1.258-.908.452-.082-1.43-.573-.108-.3-1.236 1.126.165-.027-.776-1.168-1.567 1.837.043.519.77zm-7.607-1.861l-.505 1.775-.82-1.02-.976-1.567 1.639.072.662.74zm-.396-11.313l1.181.604.588-.547.17.54-.314.876.656 1.503-.506 1.739-1.126.69-.3 1.675.43 1.645 1.017.23.847-.244 2.39 1.143-.185 1.121.628.496-.198.949-1.488-1.006-.71-1.079-.492.755-1.222-1.236-1.741.302-.956-.453.095-.855.601-.525-.573-.482-.246.748-.942-1.186-.287-.906-.069-1.99.772.69.198-3.27.621-1.913 1.161-.014zM261.25 213.947l-.803-2.022.153-1.103-.489-1.733-.705-1.166.545-.884-.461-1.69 1.34-.983 3.052-1.57 2.472-1.159 1.948.58.147.834 1.893.043 2.409.388 3.603-.056 1.005.368.468 1.032.084 1.478.545 1.258-.014 1.308-1.173.665.607 1.499.035 1.421.985 2.75-.21.877-.97.36-1.781 2.553.503 1.358-.426-.177-1.858-1.16-1.41.425-.922-.311-1.16.65-.984-1.075-.81.41-.112-.183-.9-1.506-1.453-.184-.188-.969-1.341-.346-.293.799-1.062-.637.119-.855-1.46-.276zM380.406 252.326l1.459 1.165.585 1.9 3.25.994-1.91 2.044-2.2.364-3.003-.593-.965 1.044.698 2.108.683 1.608 1.6 1.164-1.684 1.365.028 1.665-1.917 2.316-1.24 2.33-2.066 2.372-2.298-.171-2.178 2.358 1.297 1 .226 1.708 1.106 1.115.395 1.887-4.349-.008-1.318 1.458-1.445-.55-.592-1.572-1.53-1.672-3.636.414-3.214.036-2.785.314.748-2.572 2.847-1.15-.162-1.03-.945-.364-.056-1.98-1.889-1-.796-1.38-.973-1.2 3.306 1.172 1.98-.343 1.177.286.402-.5 1.375.2 2.572-.95.07-1.966 1.1-1.315h1.473l.212-.65 1.515-.308.726.215.776-.658-.106-1.415.839-1.429 1.254-.607-.775-1.587 1.882.079.543-.872-.085-.929.987-1.022-.233-1.215-.465-1.043 1.156-1.08 2.121-.52 2.27-.287 1-.464zM98.737 294.456l1.204.24.43.54-.607.686-1.776-.018-1.381.093-.135-1.16.329-.4zM302.283 263.614v1.615l-.376.772-1.183.362.117-.691.636-.37-.627-.29.52-1.768zM213.609 240.916l.723-.676.808-.391.503 1.309 1.17-.007.34-.335 1.162.093.553 1.337-.922.712-.021 2.049-.326.377-.078 1.224-.858.213.794 1.544-.546 1.672.68.754-.268.683-.738.939.163.825-.793.648-1.05-.349-1.027.27.305-1.949-.184-1.55-.893-.236-.475-.96.163-1.68.787-.931.141-1.046.418-1.572-.05-1.117-.396-.954zM106.607 377.868l.809-2.579.051-1.149.977-1.882 3.564-.618 1.895.036 1.91 1.085.03.654.604 1.192-.131 2.916 2.157.417.831-.424 1.378.59.386.646.19 1.99.24.847.758.093.766-.352.736.395v1.207l-.277 1.307-.401 1.279-.335 1.975-1.852 1.724-1.618.36-2.296-.345-2.055-.61 2.011-3.398-.298-.985-2.1-.862-2.5-1.623-1.669-.33zM332.81 281.465l-.123-1.816.49-1.313.49-.275.547.786.032 1.467-.393 1.467-.502.179zM278.391 224.444l.859-.61 1.234.315 1.27.014.923.691.68-.438 1.47-.273.503-.67.837.006.604.274.617.848.631 1.197 1.15 1.67.064 1.224-.213 1.176.362 1.252.887.5.929-.438.908.465.043.704-.965.575-.603-.246-.554 3.222-1.17-.28-1.448-.965-2.341.615-.987.678-2.923-.137-1.532-.418-.767.199-.574-1.095-.362-.465.461-.451-.497-.335-.624.602-1.157-.78-.156-1.115-1.213-.643-.22-.87-1.078-1.08 1.596-.52 1.2-1.888.943-1.915z"/>
        <path d="M272.979 230.151l1.259.622.162 1.08 1.2.755.647-.583.515.324-.478.437.375.45-.508.583.185.94 1 1.1-.787.788-.346.801.228.298-.346.358-.95.04-.706.145-.066-.185.243-.298.235-.616-.294.013-.405-.463-.339-.12-.265-.404-.39-.158-.294-.358-.368.146-.287.834-.494.185.17-.218-.788-.523-.677-.272-.302-.357-.545-.437.486-.113.302-1.205-.994-.993.516-1.14-.751.007.795-.986-.655-.755-.5-1.026 1.582-.696 1.288.113 1.119 1.046zM611 156.407l-1.982 2.115-3.279.499-.05 4.601-.798.962-1.875-.136-1.526-1.61-2.659-1.367-.449-2.058-2.031-.784-2.274.62-1.084-1.688.435-1.817-2.395 1.169.898 2.272-1.134 2.015-.014.029-2.566 2.058-2.588-.342 1.804 2.45 1.19 3.704.92 1.19.235 1.802-.513 1.14-3.729-.94-5.589 3.212-1.775.491-3.058 2.92-2.901 2.493-.734 1.816-2.859-2.777-5.211 3.148-.913-1.482-1.924 1.703-2.674-.542-.641 2.586-2.395 3.718.07 1.524 2.275.833-.27 5.314-1.854.135-.856 2.956.834 1.496-3.493 1.76-.691 3.845-2.98.812-.599 3.32-2.88 2.977-.741-2.194-.856-4.765-1.112-7.586.963-4.95 1.69-2.186.106-1.738 3.108-.84 3.572-4.83 3.443-4.081 3.593-3.255 1.604-5.962-2.431.363-1.198 3.505-5.068 4.53-1.64-5.086-5.161 1.425-5.005 6.809 1.654 2.407-4.462 1.012-3.087.399.143-2.814-3.108-.598-2.474 1.923-6.11-.67-6.572 1.154-6.473 7.358-7.663 8.39 3.15.435.984 2.137 1.94.748 1.275-1.696 2.196.221 2.887 3.697.064 2.792-1.56 3.212-.172 3.754-.898 4.879-3.016 4.28-.67 2.01-2.716 3.318-2.694 3.227-1.29 1.624-2.667 1.602-1.262.036-1.254-1.325-2.68 1.987-.314.898-.278-.47-.015-1.375 1.02-.071.285-3.241-.527-2.393 1.718-.997 2.423.498 1.348-2.77.684-3.177.777-1.076 1.048-2.678-3.3.883-1.733 1.176h-3.037l-.805-2.814-2.367-2.158-3.479-.983-.741-3.048-.699-1.945-.748-1.382-1.234-3.283-1.753-1.218-2.994-.99-2.652.092-2.481.599-1.654 1.645 1.098.784.029 1.794-1.113 1.033-1.803 3.362.021 1.375-2.816 1.951-2.402-1.16-2.388.256-1.048-1.04-1.198-.335-2.93 2.18-2.63.505-1.84.755-2.516-.498-1.853.028-1.212-1.567-1.96-1.488-2.003-.413-2.531.406-1.89.576-2.836-1.31-.378-2.365-2.353-.819-1.81-.377-2.239-1.332-2.067 3.319.813 1.852-1.947 2.158-2.887-.777-1.996-.113-1.333-1.454-2.081-.042-1.74-.962-3.037 1.475-3.813 2.663-2.11.528-.785.249-1.062-1.873-2.573.413-.849-1.31-1.397-.606-.962-1.817-1.105-.57-2.873.813-2.752-1.83-1.062 1.659-4.47-8.248-2.552-2.607.735-1.069-5.012 3.198-1.917.193.164-1.838-2.567-1.16-2.089.832-.627-3.568-3.593-.755-1.796 1.446-5.004 1.275-.977.847-7.478 1.183-.92 1.154 1.44 2.286-1.917.855.378.89-1.918 1.581 3.236 2.208-.499 1.503-2.808-.135-.578.933-2.559-1.631-3.172.064-2.125 1.332-2.366-1.275-4.406-2.208-3.122.085-4.128 3.455-.25 2.272-2.052-1.802-1.597 3.397.584.62-1.154 2.286 1.696 2.023 1.483-.085 1.276 1.966-.2 1.495 1.013.47-.913 1.703-1.939.47-1.989 2.913 1.818 2.635-.2 1.845 2.182 3.177-1.19 1.075-.343.677-.884-.178-1.376-1.617-.563-.092-1.254-.62-.613-1.104-1.868-.563-1.212.428-.35-.506-2.722-1.304-2.945-.441-1.69-.47-.241.32-2.545-2.329-2.282-1.054-1.725-1.652 1.454-.456 1.661-2.386-1.119-1.14 2.944-1.19-.05-.64-1.796.47.064-1.304 1.034-.826 1.932-.22.313-.998-.442-1.66.813-1.588-.021-.897-2.944-1.005-1.17.036-1.233-1.453-1.532.491-2.538-1.097.043-.62-.713-1.374-1.597-.157-.164-.99.499-.648-1.276-1.837-2.075.313-.606-.164-.506.74-.748-.127-.492-2.094-.47-1.097.384-.314 1.611.114.778-.726-.578-.89-1.347-.592.12-.612-.812-.62-1.254-2.244.427-.933-.192-1.645-1.953-.84-1.048.42-.285-.883-2.103-.898-.642-2.13-.171-1.773-.962-.848.855-1.182-.592-3.533 1.426-2.23-.3-.683 2.275-2.187-2.096-1.908 4.277-5.278 1.854-2.458.748-2.208-2.958-3.034.82-2.956-1.797-3.454 1.347-4.103-2.324-5.67 1.847-3.903-3.058-3.554.292-3.846 1.61-.513 3.401-2.272 2.06-2.001 3.287 3.461 5.475 1.34 7.549 6.16 1.533 2.5.135 3.42-2.217 2.627-3.265 1.318-8.925-3.782-1.469.641 3.258 3.633.129 2.243.128 4.808 2.573 1.403 1.561 1.182.257-2.215-1.205-1.994 1.27-1.788 4.833 2.92 1.682-1.132-1.347-3.476 4.655-4.8 1.846.284 1.868 1.731 1.162-3.426-1.669-3.048.977-3.141-1.468-3.34 5.588 1.737 1.141 2.977-2.53.648.014 2.878 1.575 1.738 3.087-1.097.492-3.283 4.177-2.508 6.98-4.658 1.503.27-1.967 3.306 2.48.555 1.433-1.837 3.743-.15 2.965-2.272 2.282 3.29 2.274-3.625-2.096-3.262 1.04-1.895 5.903 1.738 2.766 1.774 7.243 6.268 1.34-2.828-2.032-2.927-.057-1.197-2.41-.555.657-2.728-1.07-4.623-.057-1.952 3.686-5.69 1.312-5.998 1.482-1.339 5.29 1.788.413 3.69-1.896 5.185 1.24 1.98.642 4.23-.456 7.885 2.203 3.37-.856 3.568-3.914 7.265 2.289.726.798-1.787 2.196-1.297.527-2.528 1.733-2.486-1.162-3.034.933-3.619-2.188-.455-.478-3.149 1.597-5.897-2.595-5.007 3.579-4.302-.463-4.716.998-.156 1.048 3.696-.792 6.176 2.139 1.132-.913-4.537 3.344-2.55 4.149-.349 3.692 3.69-1.775-5.428-.2-7.322 3.48-1.439 4.804.314 4.334-.94-1.625-3.832 2.317-5 2.295-.214 3.885-3.925 5.276-1.075.67-2.244 5.246-.77 1.633 1.86 4.484-4.445 3.671.143.549-3.732 1.91-3.797 4.72-3.782 3.429 2.999-2.724 2.23 4.527 1.367.542 4.295 1.825-2.094 5.845.114 4.506 4.16 1.604 3.097-.5 4.167-2.21 2.308-5.253 4.217-1.504 2.193 2.48 1.019 2.959 1.816 1.796-1.36 1.02 4.551.877-1.823 3.193-1.119 6.416 1.176.485 3.262 8.355 1.018.114-5.32 4.241 1.24 3.194-.037 3.23 3.661.919 4.303-1.184 2.735 2.51 4.971 3.144 2.486 1.931-6.539 3.208 2.85 3.408-1.696 3.87 1.938 1.476-1.76 3.272.884-1.44-5.983 2.638-2.9 18.05 4.317 1.704 3.81 5.232 4.737 8.07-1.154 3.978 1.005 1.66 2.492-.242 4.288 2.46 1.631 2.673-1.168 3.543-.15 3.77 1.119 3.786-.634 3.479 4.979 2.474-1.767-1.619-3.61.891-2.58 6.38 1.632 4.157-.35 5.745 2.736 2.795 2.45 4.897 4.174 5.24 5.228-.171 3.162 1.347 1.24-.463-3.668 5.425.762 3.956 4.65zm-90.84 64.46l-2.011-5.47-.827-3.213.05-3.205-.692-3.205-.52-2.244-.891.477.791 1.574-1.846 1.546-.178 4.487 1.169 3.141-.086 4.167-.463 2.308.228 3.233-.221 2.857.37 2.421 1.312-2.229 1.519 1.738.057-2.023-1.946-3.013 1.226-4.352 2.958 1.005zM275.63 201.294l-2.096-.613-2.758 1.125-.457 1.518 2.46.391 3.678-.05-.157-.876.214-.947-.884-.548zm315.18-71.312l2.61-.37 2.06-1.468.17-.847-2.893-1.788-1.697-.014-.257.263-2.544 2.593.356 1.944 2.196-.313zm-78.33-19.295l-1.896 2.792.35.37 4.099.77 3.03-.05-.243-1.831-2.837-2.714-2.502.663zm17.516-6.788l2.31-3.027-5.02-2.052-3.727-1.196-.478 2.557 3.714 3.041 3.2.677zm-17.915-1.204l7.364.214 1.576-5.798-7.222-4.323-5.275-.364-2.637 1.553-1.077 5.52 3.957 4.993 3.314-1.795zm-176.164 18.476l-2.045 1.396.292 3.44 3.621 1.674.528 2.721 6.53.784 1.183-.527-3.821-5.065-.406-5.356 3.13-6.51 2.979-6.994 6.209-7.244 6.102-3.804 7.079-4.088 1.34-2.642-1.39-3.44-3.892 1.139-3.422 3.198-6.651 1.581-6.601 5.278-4.47 4.167.542 3.469-4.784 6.431 1.84.87-3.964 5.89.071 3.632zm105.134-48.39l.592-4.075-5.069-5.94-1.504-.698-1.64 1.21-3.65 13.249 11.271-3.747zM323.978 51.903l2.167 2.763 2.338-1.916.278-1.937 1.797-.905 2.68-1.588.77-1.866-2.966-2.742-1.882 2.065-1.147 2.935-.407-3.312-3.036.15-3.9 2.236 4.448.37-1.14 3.747zm93.564 9.288l3.315 4.08 5.567 2.992 4.363-1.282.492-9.7-4.605-11.425-3.885-6.425-4.328 2.927-5.19 8.426 2.731 2.33 1.54 8.077zM292.84 334.208l.868 1.232-.132 1.287-.62.274-1.154-.14-.667 1.247-1.325-.173.201-1.2.303-.165.077-1.302.628-.612.527.227zM317.03 299.116l-.258-.856-.606-.607-.158-.808-1.028-.718-1.07-1.698-.564-1.663-1.385-1.409-.893-.33-1.327-1.968-.229-1.436.086-1.235-1.15-2.32-.935-.821-1.085-.435-.657-1.215.107-.476-.556-1.104-.586-.477-.778-1.601-1.22-1.74-1.021-1.49-.993.006.307-1.2.093-.767.243-.883 2.227.352.871-.677.478-.8 1.528-.304.328-.753.664-.372-1.999-2.25 4.012-1.14.379-.338 2.413.615 2.984 1.58 5.64 4.48 3.719.18 1.784.213.5 1.043 1.414-.055.785 1.884.985.49.343.766 1.363.904.122.89-.2.712.257.718.57.6.272.697.3.518.6.421.556-.152.379.808.078.49.771 2.126 6.011 1.05.407-.443.914 1.478-1.335 4.12-6.004 2.044-5.768.78-1.87.91-1.435 2.12-.935.331-.5-.67-.764.104-1.935-.2-.37-.207-2.307.048-.542.187-.821-.525-.536.987.207.849zM554.319 353.785l.55.699-1.383-.014-.756-1.254 1.18.497.409.072zm-2.507-1.246l-.77.044-1.214-.21-.417-.316.127-.807 1.307.317.642.425.325.547zm1.638-.554l-.296.374-1.469-1.764-.41-1.21h.671l.713 1.62.791.98zm-3.573-2.564l.085.41-1.554-.857-1.087-.727-.741-.677.296-.21.911.483 1.624.93.466.648zm-4.625-2.003l-.395.116-.869-.461-.812-.829.099-.338 1.179.85.798.662zM299.111 313.03l-.27-.036.035-.992-.235-.684-.997-.788-.235-1.444.235-1.479-.9-.133-.13.443-1.17.106.47.584.166 1.204-1.065 1.099-.969 1.437-.996.204-1.634-1.162-.733.408-.2.585-.997.373-.07.408h-1.93l-.27-.408-1.398-.07-.699.345-.533-.176-.996-1.162-.332-.543-1.405.275-.533.923-.498 1.774-.664.373-.595.219-.16-.099-.67-.57-.125-.613.311-.83v-.81l-1.121-1.247-.221-.86.02-.485-.712-.585-.021-1.169-.402-.774-.685.12.194-.74.505-.845-.221-.83.637-.62-.402-.472.512-1.254.886-1.5 1.675.141-.097-8.175.027-.874 2.229-.007v-4.197h23.022l.623 2.07-.422.381.284 2.155.712 2.479.734.514 1.065.76-.982 1.176-1.433.338-.609.634-.186 1.359-.838 2.993.208.81-.311 1.739-.79 1.979-1.169 1-.83 1.528-.2.817-.914.563-.575 2.084zM274.785 156.859l-1.88 3.34.305 2.864-3.082 3.654-3.739 3.803-1.417 5.99 1.383 2.9 1.852 2.237-1.776 4.437-2.018.898-.74 6.297-1.098 3.39-2.35-.349-1.099 2.814-2.246.163-.615-3.354-1.624-4.139-1.472-5.342.857-2.244 1.61-2.714.643-4.794-1.237-2.122-.124-5.727 1.264-4.21 1.921.078.67-1.816-.704-1.588 3.006-6.767 1.942-5.606 1.278-3.732 1.86.014.517-2.999 3.65.869.282-3.619 1.203-.235 2.584 2.714 3.02 3.669.056 7.92.65 1.924zM259.61 227.558l1.574.214.964-.635 1.663-.07.36-.475.319.034.373.946-1.513.745-.19 1.118-.659.283.007.773-.747-.055-.644-.449-.353.47-1.324-.097.42-.249-.454-1.18zM279.832 76.431l-4.412 3.792-3.49-2.137 1.368-2.419-1.191-3.07 4.095-1.967.782 3.665 2.848 2.136zM267.04 57.557l6.506 7.987-4.976 4.004-1.1 7.138-1.734 1.761-.937 7.435-2.383.34-4.25-5.405 1.79-3.268-2.96-2.73-3.848-8.363-1.537-8.34 5.385-4.025 1.086 3.933 2.812-.156.747-3.841 2.904-.396 2.495 3.926zm14.217-8.107l3.876 4.103-2.932 6.027-5.73 1.28-5.83-1.81-.351-3.056-2.834-.198-2.164-5.292 6.104-3.34 2.869 2.887 2.002-3.6 4.99 2.999zM269.163 219.8l.102.185.738-.412.898 1.08 1.057-.653.84.312 1.286-.426 1.693 1.166-.49.789-.35 1.215-.382.306-1.91-.91-.585.177-.42.711-.84.37-.192-.192-.866.462-.713.092-.14.597-1.502.363-.656-.327-.91-.76-.178-1.031.146-.384.248-.661.796.05.605-.313.05-.277.345-.15.114-.689.408-.135.28-.547zM209.352 318.612l-.56-.143-1.482-.768-1.076-1.02-.361-.7-.258-1.413 1.105-.843.236-.536.354-.415.575-.04.48-.36h1.65l.576.685.45.81-.067.556.332.503-.022.7.567-.108-.965.89-.93 1.04-.11.55zM197.993 304.393l-.786-1.565-.947-.713.84-.384.92-1.418.447-1.04.65-.65.948.174.92-.44 1.064-.02.907.593 1.26.538 1.15 1.488 1.253 1.383.088 1.25.373 1.146.71.566.163.768-.088.622-.277.112-1.03-.154-.142.216-.42.05-1.367-.49-.914-.02-3.508-.084-.508.223-.63-.063-1.008.329-.312-1.53 1.727.042.46-.28.339-.02.704-.462.813.426.826.035.819-.454-.38-.573-.629.336-.59-.007-.744-.496-.603.035-.433.468zM333.467 308.255l-.048-.56-.726.006-.91.696-1.02.2-.883.297-.61.043-1.095.071-.684.37-.952.134-1.69.625-2.089.235-1.814.518-.951-.007-.863-.845-.377-.831-.622-.377-.712 1.08-.418.717.712 1.108.705.966.733.718 6.277 2.372 1.616-.014-5.429 5.98-2.499.085-1.711 1.399-1.225.036-.528.625-1.677 2.251.02 7.209 1.137 1.626.431-.469.445-1.036 2.102-2.401 1.787-1.506 2.875-1.96 1.917-1.605 2.259-2.706 1.636-2.223 1.65-2.912 1.184-2.55.924-2.237.541-2.166.41-.725-.006-1.065zM117.848 320.28l2.514.41.224-.373 1.7-.146 2.251.555-1.092 1.752.165 1.395.83 1.212-.366.876-.188.927-.538.854-1.198-.43-.995.211-.845-.182-.21.59.352.402-.187.417-1.145-.168-1.28-1.767-.277-1.146-.666-.008-.935-1.474.39-1.059-.113-.474 1.272-.533z"/>
        <path d="M299.55 313.447l.021 1.604-.307.627-1.082.05-.702 1.175 1.258.146 1.038.998.365.817.936.474 1.206 2.224-1.389 1.341-1.257 1.218-1.265.933h-1.44l-1.652.474-1.302-.46-.84.562-1.806-1.356-.49-.868-1.14.43-.951-.138-.548.343-.922-.24-1.235-1.685-.33-.649-1.534-.81-.52-1.224-.855-.882-1.374-1.065-.022-.67-1.119-.825-1.396-.802.629-.226.701-.386.527-1.837.563-.956 1.484-.284.35.561 1.053 1.204.563.182.739-.357 1.477.072.285.423h2.04l.073-.423 1.052-.386.212-.605.775-.423 1.726 1.203 1.053-.211 1.023-1.488 1.126-1.137-.176-1.247-.497-.605 1.236-.11.139-.459.95.139-.248 1.53.248 1.495 1.053.817.249.707-.037 1.028zM56.573 305.562l-.218.572-1.14-.034-.71-.23-.816-.488-1.097-.153-.556-.53.063-.36.675-.615.366-.273-.105-.29.464-.146.584.205.422.487.598.393.07.334.865-.29.408.17.267.265zM307.665 261.547l-3.901 2.477-2.218-.924-.042-.014.27-.35-.029-.958.49-1.28 1.088-.889-.327-.923-.895-.126-.185-1.826.483-.987.533-.525.533-.531.114-1.358.646.476 2.196-.678 1.06.454 1.64-.007 2.289-.916 1.08.042 2.267-.378-1.024 1.525-1.094.602.192 1.763-.753 2.882zM296.826 387.471l-.454 1.071-1.308.255-1.34-1.303-.016-.832.606-.901.215-.694.646-.17 1.125.44.335 1.07zM261.35 305.658l.204-.923-1.306-.049.007-1.275-.849-.73.878-2.62 2.598-1.888.101-2.612.784-4.121.442-.883-.841-.703-.037-.654-.761-.538-.501-3.219 2.053-1.144 8.12 3.977 8.111 3.929.102 8.001-1.756-.137-.929 1.468-.537 1.226.421.462-.667.607.232.813-.53.827-.203.724.718-.117.421.758.022 1.144.747.572-.021.476-1.285.337-1.037.786-1.466 2.13-1.915.903-1.967-.125-.573.18.203.682-1.066.682-.864.758-2.561.738-.508-.434-.334-.042-.377.497-1.683.151.319-.53-.639-1.33-.29-.807-.885-.33-1.197-1.138.442-.917.93.193.572-.138 1.132.021-1.103-1.771.073-1.303-.138-1.303zM369.01 442.605l1.359 1.054 2.002.428.075.642-.589 1.553-3.256.222-.053-1.815.318-1.394zM234.46 320.534l-1.634.417-.457-.693-.545-1.258-.16-.99.45-1.788-.507-.728-.196-1.57v-1.45l-.85-1.031.153-.63 1.785.043-.26 1.06.616.587.711.7.073.983.414.41-.095 4.567zM437.118 308.536l-1.877-.943-1.787.044.305-1.62-1.839.014-.164 2.26-1.124 2.988-.678 1.8.141 1.475 1.356.065.849 1.85.38 1.75 1.161 1.158 1.266.238 1.08 1.044-.677.827-1.386.245-.163-1.036-1.698-.886-.365.36-.827-.77-.357-1-1.11-1.145-1.013-.958-.342 1.188-.395-1.123.23-1.267.611-1.95 1.013-2.095 1.147-1.908-.82-1.872.038-.957-.238-1.152-1.393-1.641-.499-1.044.723-.381.76-1.814-.85-1.382-1.325-1.534-1.013-1.85.879-.381.953-2.296 1.474-.101 1.222-.922 1.191-.496.909.662.119 1.281 1.407.094-.513 2.239.052 1.886 2.197-1.253.625.367 1.229-.057.417-.735 1.579.144 1.586 1.713.134 2.066 1.69 1.822-.096 1.756-.678.936-1.958-.295-2.696.396-1.34 1.713zM373.6 244.728l-.76.756-2.25-.408-.199 1.405 2.243-.187 2.559.783 3.909-.368.524 2.228.678-.24 1.254.541-.066.924.31 1.345h-2.14l-1.423-.174-1.283 1.05-.922.228-.723.495-.819-.77.2-1.974-.628-.113.222-.73-1.114-.535-.892.823-.222.957-.317.348-1.239-.047-.664 1.07-.7-.448-1.498.75-.627-.281 1.158-2.39-.442-1.78-1.52-.575.539-1.064 1.726.114.98-1.345.657-1.572 2.766-.576-.428 1.144.295.683zM480.809 349.963l.233-.652 1.7-.621 1.383-.1.614-.345.747.346-.726.75-2.06 1.214-1.658.81-.036-.85zM353.505 255.322l-.173-2.023-1.448-.083-2.217-2.148-1.552-.27-2.148-1.245-1.386-.229-.852.459-1.296-.07-1.379 1.404-1.711.473-.36-1.73.284-2.593-1.518-.848.5-1.724-1.29-.153.43-2.147 1.83.632 1.71-.827-1.42-1.55-.554-1.487-1.566.667-.194 1.898-.61-1.675.86-.869 2.203-.549 1.316.737 1.358 2.036.998-.125 2.19-.035-.32-1.306 1.664-.904 1.635-1.529 2.619 1.39.208 2.078.741.535 2.1-.118.65.466.957 2.634 2.224 1.744 1.268 1.175 2.03 1.216 2.585 1.056-.056 1.502-.582-.077-.921-.653-.305.869-1.635.472-.388 1.94-1.095.729-1.531.361-.41 1.078-1.461.32zM251.166 269.482l-.925-4.243-1.326-.964-.024-.586-1.766-1.434-.192-1.832 1.334-1.362.509-2.042-.347-2.376.44-1.296 2.36-1.02 1.51.303-.061 1.282 1.835-.934.155.485-1.088 1.238-.008 1.16.749.615-.286 2.143-1.426 1.239.408 1.325 1.118.043.548 1.152.825.377-.123 1.846-1.057.688-.663.76-1.488.913.231.978-.185 1z"/>
        <path d="M305.718 242.018l2.922 1.031 2.377-.41 1.751.237 2.406-1.398 2.173-.13 1.962 1.319.35.937-.197 1.29 1.512.656.8.764-1.396.743.64 2.962-.4.793 1.111 2.033-.973.425-.713-.642-2.369-.324-.872.397-2.319.389-1.097-.043-2.348.944-1.678.007-1.083-.476-2.246.7-.669-.49-.109 1.398-.545.547-.545.548-.748-1.131.77-.937-1.243.216-1.708-.577-1.403 1.442-3.096.28-1.65-1.34-2.194-.086-.473 1.038-1.41.295-1.97-1.333-2.223.043-1.207-2.508-1.49-1.413.989-2.004-1.294-1.24 2.26-2.508 3.14-.108.858-2.026 3.88.353 2.45-1.744 2.377-.764 3.372-.058 3.568 1.903zm-19.804 1.723l-1.701 1.427-.64-1.232.03-.548.486-.296.633-1.68-.996-.713 2.079-.85 1.751.36.24 1.038 1.78.865-.37.656-2.42.144-.872.829zM108.187 311.042l1.696-.229.622.062-.116 1.306-2.465.192-.537-.155.863-.482zM474.983 282.535l-1.272 3.752-.903 1.911-1.113-1.965-.241-1.733 1.241-2.312 1.694-1.788.963.701zM299.207 334.208l.353.224 7.465 4.096.147 1.17 2.954 2.015-.948 2.492.117 1.149 1.323.736.059.528-.566 1.228.117.613-.132.976.72 1.27.853 2.016.749.448-1.638 1.185-2.249.794-1.234-.029-.735.614-1.433.05-.543.26-2.476-.577-1.55.166-.574-2.788-.698-.954-.419-.563-2.013-.376-1.175-.614-1.308-.339-.823-.347-.86-.513-1.11-2.564-1.197-1.134-.411-1.17.205-1.054-.367-1.857.852-.094.742-.73.809-1.054.507-.419-.022-.657-.441-.455-.118-.795.588-.252.125-1.185-.823-1.134.727-.246 2.256.03zM295.532 211.757l.755.137.516-.748.617.165 2.114-.316 1.3 1.847-.508.662.167.999 1.626.15.727 1.388-.044.626 2.586 1.107 1.561-.496 1.257 1.466 1.19-.029 3 1.007.022.913-.82 1.603.442 1.675-.32.999-1.967.223-1.046.834-.066 1.315-1.626.237-1.359.95-1.902.15-1.758 1.093-.959.74 1.082 1.057.995.69 2.078-.173-.4 1.021-2.23.489-2.767 1.632-1.125-.568.443-1.33-2.223-.834.363-.553 2.295-1.172-.29-.582-.327.294-.32-.158-3.166-.733-.138-1.085-1.888.359-.756 1.603-1.576 2.12-.93-.488-.95.46-.909-.525.509-.316.356-.985.559-.927-.145-.518.428-.23.196.403 1.206.079.537-.209-.377-.302.138-.431-.712-.748-.29-1.236-.741-.482.145-1.013-.923-.805-.835-.115-1.503-.942-1.351.302-.487.446-.857-.008-.515.705-1.504.287-.69.46-.951-.726-1.3-.014-1.264-.33-.879.64-.145-.806-1.126-.82.4-1.229.56-.79.45.172-.53-1.38 1.851-2.595 1.01-.367.218-.891-1.024-2.796.973-.123 1.118-.884 1.576-.072 2.056.26 2.273.775 1.605.065.763.467.762-.56.538.755 1.837-.159.806.31.138-1.625.625-.719zM294.056 333.467l-2.034-.025-.655.217-1.107.55-.45-.186.013-1.341.43-.677.107-1.431.39-.824.71-.933.715-.473.596-.632-.742-.237.113-2.082.761-.492 1.18.402 1.496-.415h1.305l1.146-.817.881 1.239.219.894.815 2.044-.676 1.297-.914 1.176-.53.721.013 1.885zM-29.39 201.199l-1.094-1.303-1.754-1.117-.562-3.104-2.564-2.94-1.073-3.515-1.91-.242-3.17-.093-2.336-1.096-4.12-4.014-1.904-.748-3.481-1.416-2.757.341-3.914-1.843-2.365-1.73-2.21.862.412 2.797-1.1.256-2.303.826-1.754 1.324-2.21.825-.284-2.306.895-3.936 2.117-1.26-.547-1.039-2.536 2.292-1.357 2.683-2.87 2.812 1.457 1.886-1.883 2.74-2.138 1.573-1.996 1.132-.49 1.63-3.112 1.872-.632 1.68-2.33 1.516-1.364-.27-1.861.981-2.025 1.19-1.655 1.16-3.417.982-.313-.577 2.181-1.616 1.946-1.074 2.125-1.93 2.472-.398.98-1.466 2.764-2.171.447-.733 1.47-1.303.342-2.847 1.015-2.256-2.294 1.167-.64-.662-1.08 1.388-1.3-1.943-.54 1.38-.745-1.92-1.99 1.544h-1.221l-.17-2.3.362-1.437-1.286-1.41-2.593.762-1.684-1.872-1.364-.968-.007-2.313-1.534-1.765.767-2.427 1.627-2.399.71-2.242 1.613-.32 1.364.704 1.605-2.142 1.45.384 1.52-1.395-.37-2.078-1.115-.826 1.478-1.793-1.222.05-2.117 1.017-.604 1.018-1.57-1.018-2.82.52-2.92-1.11-.838-1.887-2.522-2.783 2.799-2.043 4.44-2.427h1.64l-.27 2.477 4.206-.192-1.62-3.089-2.45-1.936-1.414-2.59-1.91-2.257-2.736-1.694 1.115-2.869 3.531-.177 2.515-2.549.476-2.79 2.032-2.783 1.939-.676 3.772-2.676 1.833.406 3.062-3.282 3.012 1.303 1.442 2.754.888-1.174 3.367.363-.12 1.388 3.047 1.018 2.032-.598 4.198 1.879 3.83.555 1.534.762 2.65-.954 3.018 1.75 2.167.805-.014 19.68-.007 25.218 1.96.121 1.94 1.11 1.392 1.737 1.77 2.563 1.939-2.171 1.996-1.274 1.058 2.028 1.343 1.588 1.826 1.722 1.243 2.698 2.039 4.185 3.388 2.278.057 2.22-1.137 1.652zm124.98 24.506l-.888-.847-1.336.498-.66-.769-1.52 2.207-.612 2.242-.71 1.295-.846.442-.639.142-.199.697h-3.673l-3.026.022-.902.52-2.039 1.942.206.385.121 1.075-1.492.904-1.634-.228-1.563-.1-.944.313.177.819.036.263-1.72 1.616-1.498.776-1.023.363-1.18.733-1.442.356-.994-.136-1.23-.548.683-1.032.44-.94.938-1.487-.1-1.117-.355-1.595-.739-.277-1.236 1.21-.397-.022-.1-.69 1.094-1.11.185-1.274-.164-1.274-1.477-1.104-1.691-.57-.277 1.083-.44.285-.356 1.387-.184-.946-.796.676-.497.94-.519 1.366-.1 1.167.661 1.694-.056 1.787-.81 1.31-.405.37-.54.292-.675.014-.185-.178-.54-1.41-.014-.697.057-.669-.249-1.331.377-1.552.447-1.929 1.038-2.156-1.762 1.815-.27-.328.781-1.01 1.187-1.83 1.357-.256 1.555-.57 1.57.3 1.819-.242-.995-1.146-.533-.093-.61-.114-.42-.811-1.953.256-1.769.64-1.4-1.102-1.129-.37.64-1.545-1.762.975-1.599.947-1.534.74-1.222-.997-1.996.605.007-.427 1.35-1.231 1.413-1.174 2.032-.976-2.45-.775-1.614.391-1.932-.925-2.032-.477-1.392-.185-.618-.513-.355-1.672-.675.014-.007 1.167H-14.074l.675 2.47.32 2.427-.49.776-1.059-2.783-2.877-1.01-.241.583.582 1.38.632 2.513.363 3.858-.242 2.555-.241 2.52-.782 2.57.64 2.064.07 2.277-.433 2.171 1.059 1.417.277 2.1 1.541 2.127.881.833-.07.584 1.662 3.452 1.932 2.456.241 1.33.505.392 1.847.235.71.648 1.115.12.22.684.931.285 1.293 1.366.334 1.21 2.266-.178 2.53-.256-.185.463 3.004 1.139 4.547 1.644 3.964-.015h1.577l.007-.96h3.453l.724.825 1.016.733 1.186 1.018.661 1.203.497 1.26 1.03.69 1.656.684 1.257-1.801 1.627-.043 1.406.911 1.002 1.552.69 1.324 1.171 1.28.44 1.56.562 1.046 1.556.683 1.413.484.775-.064-.377-.754-.1-1.068.022-1.537.462-1.011 1.087-1.075 1.982-.975 1.811-1.687 1.677-.534 1.236-.163 1.449.526 1.74-.284 1.485 1.203 1.442.07.746-.433.739.334.377-.299-.427-.448.036-.926-.355-.612.824-.356 1.52-.156 1.769.256 2.252-.292 1.25.57.966 1.067.355.114 2.01-1.039.775.349 1.556 1.907.561 1.246-.412 1.495.298.875.924 1.708 1.058 1.908.76.505.313.961.98.263.597-.277.497-1.345.086-.862.064-1.494-.945-2.598-.014-.975-.888-1.602-.668-1.957-.355-1.602.305-1.644.938-1.38 1.122-1.118 2.188-1.538.284-.797 1.01-.875.994-.157 1.307-1.41 2.06-.718 1.264-1.8-.277-2.464-.206-.86-.568-.172-.085-2.384-1.371-.811 1.314.398-.426-1.608.383-1.104.235 2.114 1.016.968-.618 1.709 1.307-1.9.64-.983-.03-.961-.497-.456-.412-1.38.654.64.44.135.15.655 1.449-1.978.433-1.865-.59-.121.604-.726-.057.32 1.272-.007 2.792-.79-.59-.498-2.927.498 1.663-.762 1.158-.128.866-.135 1.47-.463.96.05 1.343-.434.156-.762-.597-.598.206.976-.824-.065-.66-1.416.02-1.43.342-.613 1.051-1.623 2.103-.818 2.046-.954 2.124-1.352-.341-.918-1.3-1.602-.021-3.957zm-170.182-35.902l-1.066.57-1.811 1.324.305 1.722 1.016.94 1.99-1.388 1.726-1.758-.846-1.16-1.314-.25zM-107 169.468l1.45-.897.163-.484-1.613-.477v1.858zm6.038 10.94l-1.967.69 1.207 1.082 1.307.74 1.222-.619-.192-1.53-1.577-.363zm69.157 23.132l-1.911.27-.938-.44-.12 1.081.369 1.474 1.009 1.039.739 1.516 1.2 1.495.796.007-1.734-2.634.59-3.808zm-48.818 85.896l-.71-.199-.192.185.014.135.227.171.341.449.668-.15.163-.256-.511-.335zm-2.124-.384l1.065.064.064-.228-.98-.092-.15.256zm4.184 2.342l-.355-.185-.76-.356-.15-.043-.113.2.135.412-.348.342-.1.235.327.768-.057.591.497.3.292-.35.64-.327.78-.448.05-.114-.504-.74-.334-.285zm-5.584-3.659l-.532.292.078.085.255.484.697.079.142.028.106-.12-.575-.705-.17-.143zm-3.125-1.11l-.306.213-.106.157.667.391.235-.213-.043-.498-.447-.05zM116.741 395.25l1.26-.215 1.947 1.581.72-.057 2.003 1.316 1.524 1.15 1.122 1.424-.859.993.54 1.201-.838 1.341-2.196 1.19-1.434-.43-1.053.233-1.794-.923-1.316.07-1.185-1.183.153-1.366.422-.468-.02-2.087.52-2.132zM365.107 252.553l.056-1.55-2.604-1.092-2.045-1.256-1.278-1.214-2.24-1.802-.964-2.72-.656-.482-2.115.122-.747-.552-.21-2.147-2.638-1.436-1.648 1.58-1.675.933.32 1.35-2.205.035-.077-10.144 5.04-1.687.363.251 3.037 2.039 1.599 1.063 1.87 2.512 2.297-.402 3.358-.215 2.339 2.01-.147 2.728.956.022.398 2.197 2.493.086.53 1.256.733-.014.859-1.903 2.576-1.873 1.124-.503.579.266-1.64 1.744 1.445 1.005 1.396-.667 2.317 1.407-2.506 1.895-1.487-.258-.81.072-.279-.733.405-1.227-2.618.617-.621 1.687-.928 1.443-1.634-.122-.51 1.142 1.439.617.418 1.91-1.096 2.563-1.48-.531z"/>
        <path d="M88.751 308.495l-.057.488-1.186.24.661.94-.028 1.086-.884 1.194.762 1.632.869-.132.452-1.485-.625-.729-.1-1.558 2.507-.845-.28-.976.704-.656.726 1.457 1.415.036 1.307 1.151.08.685 1.803.014 2.155-.21 1.157.924 1.537.255 1.128-.64.021-.525 2.5-.124 2.414-.03-1.71.613.683.976 1.617.152 1.523 1.013.323 1.646 1.049-.051.79.488-1.595 1.202-.18.75.69.758-.495.378-1.243.328.043.947-.546.56 1.358 1.545.273.575-.74.78-2.256.757-1.444.32-.582.481-1.602-.51-1.495-.262-.373.19.898.524-.08 1.362.281 1.282 1.703.175.115.422-1.444.583-.23.86-.834.327-1.494.474-.388.626-1.566.131-1.114-1.078-.61-2.017-.54-.714-.732-.445 1.02-1.012-.064-.459-.575-.604-.402-1.348.158-1.464.445-.685.366-1.092-.71-.357-1.15.233-1.451-.11-.812.22-1.423-1.756-1.17-.262-2.587.196-.481-.713-.496-.168-.072-.43.237-.757-.158-.823-.445-.452-.259-.947-1.034-.13.553-1.21.251-1.464.582-.772.783-.59.51-1.034zM447.89 288.149l-2.612 1.815-1.634 1.992-.433 1.453 1.501 2.19 1.83 2.709 1.775 1.269 1.194 1.652.894 3.771-.265 3.559-1.628 1.326-2.249 1.297-1.593 1.673-2.444 1.858-.713-1.284.552-1.354-1.453-1.141 1.698-.808 2.053-.142-.859-1.226 3.29-1.553.244-2.425-.454-1.36.357-2.043-.496-1.446-1.481-1.432-1.237-1.822-1.627-2.453-2.347-1.247.566-.759 1.25-.546-.761-1.836-2.41-.021-.88-1.929-1.146-1.68 1.055-.524 1.558.014 1.907-.248 1.669-1.149.943.808 1.795.39-.314 1.234.936.865zM568.123 365.922l-.844.26-.862-.87.091-.533 1.615 1.143zm-1.899-3.038l.422 1.594-.688-.246-.532.11-.367-.548-.055-1.512 1.22.602zM337.365 298.559l-1.451.564-.386.913-.05.706-1.994.87-3.202.964-1.794 1.449-.88.107-.6-.122-1.172.856-1.28.393-1.679.107-.507.114-.436.535-.53.15-.306.521-.994-.043-.643.271-1.387-.1-.522-1.191.058-1.12-.322-.607-.393-1.513-.579-.849.4-.1-.207-.941.243-.4-.086-.899.88-.664-.208-.877.536-1.02.822.542.543-.193 2.309-.05.371.214 1.937.207.765-.107.5.692.937-.342 1.436-2.19 1.873-.943 5.775-.806 1.572 3.454zM294.295 391.708l-.38.319-.824 1.13-.54 1.15-1.1 1.616-2.192 2.343-1.37 1.372-1.466 1.047-2.026.9-.99.119-.249.644-1.175-.346-.962.443-2.103-.45-1.176.284-.802-.125-1.999.922-1.653.375-1.197.887-.885.055-.823-.838-.657-.042-.837-1.047-.09.326-.256-.63.014-1.36-.63-1.545.623-.416-.049-1.754-1.272-2.114-.976-1.9v-.006l-1.39-2.877.927-1.088.768.603.325.942.871.16 1.218.416 1.044-.16 1.73-1.13v-7.985l.525.319 1.148 2.03-.18 1.311.436.762 1.39-.221.969-.964.92-.645.477-1.025.948-.5.816.264.927.603 1.577.104 1.238-.5.194-.665.339-1.019 1.058-.173.581-.797.643-1.407 1.743-1.567 2.746-1.539.789.021.94.354.65-.25 1.031.208.927 2.953.505 1.504-.346 2.378.166.77-.982-.396-.56.153-.18.624-.533.81.021.75 1.155 1.178 1.135-.236.394-.964 1.473.021-.484 1.58-.228 1.817-.505.991-1.314 1.123zm-4.932-.665l-.844-.68-.906.45-1.051.867-1.038 1.407 1.453 1.72.691-.222.36-.714 1.079-.347.332-.728.595-1.081-.671-.672zM297.705 350.205l.95.882.51 1.68-.345.54-.403 1.61.388 1.652-.632.693-.612 1.862 1.057.518-6.12 1.666.194 1.435-1.531.28-1.144.805-.244.707-.727.154-1.755 1.68-1.114 1.323-.684.05-.654-.239-2.251-.224-.36-.154-.021-.168-.791-.462-1.31-.119-1.653.47-1.316-1.275-1.36-1.666.094-6.412 4.2.028-.173-.693.302-.75-.352-.93.23-.966-.216-.616.698.049.115.616.942-.05 1.28.183.676.903 1.611.28 1.237-.63.453 1.043 1.547.28.74.854.827 1.099 1.547.02-.173-2.155-.554.357-1.41-.77-.546-.357.252-1.995.36-2.346-.454-.875.576-1.26.539-.23 2.711-.337.791.203.842.497.805.336 1.28.33z"/>
        <path d="M292.638 377.057l-1.092-.211-.697.253-.99-.359-.835-.021-1.312-.957-1.59-.324-.602-1.338-.007-.739-.88-.225-2.323-2.288-.653-1.204-.41-.366-.792-1.654 2.294.225.667.24.697-.05 1.136-1.33 1.789-1.69.74-.155.25-.71 1.165-.81 1.561-.282.132.76 1.715-.042.953.43.44.506.982.148 1.063.662.008 2.598-.403 1.436-.088 1.548.33.62-.228 1.225-.315.19-.542 1.513z"/>
    </g>
</svg>
